<?xml version="1.0" encoding="utf-8" standalone="no"?>
<!DOCTYPE svg PUBLIC "-//W3C//DTD SVG 1.1//EN"
  "http://www.w3.org/Graphics/SVG/1.1/DTD/svg11.dtd">
<!-- Created with matplotlib (https://matplotlib.org/) -->
<svg height="345.6pt" version="1.1" viewBox="0 0 460.8 345.6" width="460.8pt" xmlns="http://www.w3.org/2000/svg" xmlns:xlink="http://www.w3.org/1999/xlink">
 <metadata>
  <rdf:RDF xmlns:cc="http://creativecommons.org/ns#" xmlns:dc="http://purl.org/dc/elements/1.1/" xmlns:rdf="http://www.w3.org/1999/02/22-rdf-syntax-ns#">
   <cc:Work>
    <dc:type rdf:resource="http://purl.org/dc/dcmitype/StillImage"/>
    <dc:date>2021-05-28T18:33:33.647974</dc:date>
    <dc:format>image/svg+xml</dc:format>
    <dc:creator>
     <cc:Agent>
      <dc:title>Matplotlib v3.3.3, https://matplotlib.org/</dc:title>
     </cc:Agent>
    </dc:creator>
   </cc:Work>
  </rdf:RDF>
 </metadata>
 <defs>
  <style type="text/css">*{stroke-linecap:butt;stroke-linejoin:round;}</style>
 </defs>
 <g id="figure_1">
  <g id="patch_1">
   <path d="M 0 345.6 
L 460.8 345.6 
L 460.8 0 
L 0 0 
z
" style="fill:#ffffff;"/>
  </g>
  <g id="axes_1">
   <g id="patch_2">
    <path d="M 57.6 307.584 
L 414.72 307.584 
L 414.72 41.472 
L 57.6 41.472 
z
" style="fill:#ffffff;"/>
   </g>
   <g id="matplotlib.axis_1">
    <g id="xtick_1">
     <g id="line2d_1">
      <defs>
       <path d="M 0 0 
L 0 3.5 
" id="mf8f975a669" style="stroke:#000000;stroke-width:0.8;"/>
      </defs>
      <g>
       <use style="stroke:#000000;stroke-width:0.8;" x="84.856651" xlink:href="#mf8f975a669" y="307.584"/>
      </g>
     </g>
     <g id="text_1">
      <!-- 2600 -->
      <g transform="translate(72.131651 322.182437)scale(0.1 -0.1)">
       <defs>
        <path d="M 19.1875 8.296875 
L 53.609375 8.296875 
L 53.609375 0 
L 7.328125 0 
L 7.328125 8.296875 
Q 12.9375 14.109375 22.625 23.890625 
Q 32.328125 33.6875 34.8125 36.53125 
Q 39.546875 41.84375 41.421875 45.53125 
Q 43.3125 49.21875 43.3125 52.78125 
Q 43.3125 58.59375 39.234375 62.25 
Q 35.15625 65.921875 28.609375 65.921875 
Q 23.96875 65.921875 18.8125 64.3125 
Q 13.671875 62.703125 7.8125 59.421875 
L 7.8125 69.390625 
Q 13.765625 71.78125 18.9375 73 
Q 24.125 74.21875 28.421875 74.21875 
Q 39.75 74.21875 46.484375 68.546875 
Q 53.21875 62.890625 53.21875 53.421875 
Q 53.21875 48.921875 51.53125 44.890625 
Q 49.859375 40.875 45.40625 35.40625 
Q 44.1875 33.984375 37.640625 27.21875 
Q 31.109375 20.453125 19.1875 8.296875 
z
" id="DejaVuSans-50"/>
        <path d="M 33.015625 40.375 
Q 26.375 40.375 22.484375 35.828125 
Q 18.609375 31.296875 18.609375 23.390625 
Q 18.609375 15.53125 22.484375 10.953125 
Q 26.375 6.390625 33.015625 6.390625 
Q 39.65625 6.390625 43.53125 10.953125 
Q 47.40625 15.53125 47.40625 23.390625 
Q 47.40625 31.296875 43.53125 35.828125 
Q 39.65625 40.375 33.015625 40.375 
z
M 52.59375 71.296875 
L 52.59375 62.3125 
Q 48.875 64.0625 45.09375 64.984375 
Q 41.3125 65.921875 37.59375 65.921875 
Q 27.828125 65.921875 22.671875 59.328125 
Q 17.53125 52.734375 16.796875 39.40625 
Q 19.671875 43.65625 24.015625 45.921875 
Q 28.375 48.1875 33.59375 48.1875 
Q 44.578125 48.1875 50.953125 41.515625 
Q 57.328125 34.859375 57.328125 23.390625 
Q 57.328125 12.15625 50.6875 5.359375 
Q 44.046875 -1.421875 33.015625 -1.421875 
Q 20.359375 -1.421875 13.671875 8.265625 
Q 6.984375 17.96875 6.984375 36.375 
Q 6.984375 53.65625 15.1875 63.9375 
Q 23.390625 74.21875 37.203125 74.21875 
Q 40.921875 74.21875 44.703125 73.484375 
Q 48.484375 72.75 52.59375 71.296875 
z
" id="DejaVuSans-54"/>
        <path d="M 31.78125 66.40625 
Q 24.171875 66.40625 20.328125 58.90625 
Q 16.5 51.421875 16.5 36.375 
Q 16.5 21.390625 20.328125 13.890625 
Q 24.171875 6.390625 31.78125 6.390625 
Q 39.453125 6.390625 43.28125 13.890625 
Q 47.125 21.390625 47.125 36.375 
Q 47.125 51.421875 43.28125 58.90625 
Q 39.453125 66.40625 31.78125 66.40625 
z
M 31.78125 74.21875 
Q 44.046875 74.21875 50.515625 64.515625 
Q 56.984375 54.828125 56.984375 36.375 
Q 56.984375 17.96875 50.515625 8.265625 
Q 44.046875 -1.421875 31.78125 -1.421875 
Q 19.53125 -1.421875 13.0625 8.265625 
Q 6.59375 17.96875 6.59375 36.375 
Q 6.59375 54.828125 13.0625 64.515625 
Q 19.53125 74.21875 31.78125 74.21875 
z
" id="DejaVuSans-48"/>
       </defs>
       <use xlink:href="#DejaVuSans-50"/>
       <use x="63.623047" xlink:href="#DejaVuSans-54"/>
       <use x="127.246094" xlink:href="#DejaVuSans-48"/>
       <use x="190.869141" xlink:href="#DejaVuSans-48"/>
      </g>
     </g>
    </g>
    <g id="xtick_2">
     <g id="line2d_2">
      <g>
       <use style="stroke:#000000;stroke-width:0.8;" x="139.976268" xlink:href="#mf8f975a669" y="307.584"/>
      </g>
     </g>
     <g id="text_2">
      <!-- 2700 -->
      <g transform="translate(127.251268 322.182437)scale(0.1 -0.1)">
       <defs>
        <path d="M 8.203125 72.90625 
L 55.078125 72.90625 
L 55.078125 68.703125 
L 28.609375 0 
L 18.3125 0 
L 43.21875 64.59375 
L 8.203125 64.59375 
z
" id="DejaVuSans-55"/>
       </defs>
       <use xlink:href="#DejaVuSans-50"/>
       <use x="63.623047" xlink:href="#DejaVuSans-55"/>
       <use x="127.246094" xlink:href="#DejaVuSans-48"/>
       <use x="190.869141" xlink:href="#DejaVuSans-48"/>
      </g>
     </g>
    </g>
    <g id="xtick_3">
     <g id="line2d_3">
      <g>
       <use style="stroke:#000000;stroke-width:0.8;" x="195.095885" xlink:href="#mf8f975a669" y="307.584"/>
      </g>
     </g>
     <g id="text_3">
      <!-- 2800 -->
      <g transform="translate(182.370885 322.182437)scale(0.1 -0.1)">
       <defs>
        <path d="M 31.78125 34.625 
Q 24.75 34.625 20.71875 30.859375 
Q 16.703125 27.09375 16.703125 20.515625 
Q 16.703125 13.921875 20.71875 10.15625 
Q 24.75 6.390625 31.78125 6.390625 
Q 38.8125 6.390625 42.859375 10.171875 
Q 46.921875 13.96875 46.921875 20.515625 
Q 46.921875 27.09375 42.890625 30.859375 
Q 38.875 34.625 31.78125 34.625 
z
M 21.921875 38.8125 
Q 15.578125 40.375 12.03125 44.71875 
Q 8.5 49.078125 8.5 55.328125 
Q 8.5 64.0625 14.71875 69.140625 
Q 20.953125 74.21875 31.78125 74.21875 
Q 42.671875 74.21875 48.875 69.140625 
Q 55.078125 64.0625 55.078125 55.328125 
Q 55.078125 49.078125 51.53125 44.71875 
Q 48 40.375 41.703125 38.8125 
Q 48.828125 37.15625 52.796875 32.3125 
Q 56.78125 27.484375 56.78125 20.515625 
Q 56.78125 9.90625 50.3125 4.234375 
Q 43.84375 -1.421875 31.78125 -1.421875 
Q 19.734375 -1.421875 13.25 4.234375 
Q 6.78125 9.90625 6.78125 20.515625 
Q 6.78125 27.484375 10.78125 32.3125 
Q 14.796875 37.15625 21.921875 38.8125 
z
M 18.3125 54.390625 
Q 18.3125 48.734375 21.84375 45.5625 
Q 25.390625 42.390625 31.78125 42.390625 
Q 38.140625 42.390625 41.71875 45.5625 
Q 45.3125 48.734375 45.3125 54.390625 
Q 45.3125 60.0625 41.71875 63.234375 
Q 38.140625 66.40625 31.78125 66.40625 
Q 25.390625 66.40625 21.84375 63.234375 
Q 18.3125 60.0625 18.3125 54.390625 
z
" id="DejaVuSans-56"/>
       </defs>
       <use xlink:href="#DejaVuSans-50"/>
       <use x="63.623047" xlink:href="#DejaVuSans-56"/>
       <use x="127.246094" xlink:href="#DejaVuSans-48"/>
       <use x="190.869141" xlink:href="#DejaVuSans-48"/>
      </g>
     </g>
    </g>
    <g id="xtick_4">
     <g id="line2d_4">
      <g>
       <use style="stroke:#000000;stroke-width:0.8;" x="250.215502" xlink:href="#mf8f975a669" y="307.584"/>
      </g>
     </g>
     <g id="text_4">
      <!-- 2900 -->
      <g transform="translate(237.490502 322.182437)scale(0.1 -0.1)">
       <defs>
        <path d="M 10.984375 1.515625 
L 10.984375 10.5 
Q 14.703125 8.734375 18.5 7.8125 
Q 22.3125 6.890625 25.984375 6.890625 
Q 35.75 6.890625 40.890625 13.453125 
Q 46.046875 20.015625 46.78125 33.40625 
Q 43.953125 29.203125 39.59375 26.953125 
Q 35.25 24.703125 29.984375 24.703125 
Q 19.046875 24.703125 12.671875 31.3125 
Q 6.296875 37.9375 6.296875 49.421875 
Q 6.296875 60.640625 12.9375 67.421875 
Q 19.578125 74.21875 30.609375 74.21875 
Q 43.265625 74.21875 49.921875 64.515625 
Q 56.59375 54.828125 56.59375 36.375 
Q 56.59375 19.140625 48.40625 8.859375 
Q 40.234375 -1.421875 26.421875 -1.421875 
Q 22.703125 -1.421875 18.890625 -0.6875 
Q 15.09375 0.046875 10.984375 1.515625 
z
M 30.609375 32.421875 
Q 37.25 32.421875 41.125 36.953125 
Q 45.015625 41.5 45.015625 49.421875 
Q 45.015625 57.28125 41.125 61.84375 
Q 37.25 66.40625 30.609375 66.40625 
Q 23.96875 66.40625 20.09375 61.84375 
Q 16.21875 57.28125 16.21875 49.421875 
Q 16.21875 41.5 20.09375 36.953125 
Q 23.96875 32.421875 30.609375 32.421875 
z
" id="DejaVuSans-57"/>
       </defs>
       <use xlink:href="#DejaVuSans-50"/>
       <use x="63.623047" xlink:href="#DejaVuSans-57"/>
       <use x="127.246094" xlink:href="#DejaVuSans-48"/>
       <use x="190.869141" xlink:href="#DejaVuSans-48"/>
      </g>
     </g>
    </g>
    <g id="xtick_5">
     <g id="line2d_5">
      <g>
       <use style="stroke:#000000;stroke-width:0.8;" x="305.33512" xlink:href="#mf8f975a669" y="307.584"/>
      </g>
     </g>
     <g id="text_5">
      <!-- 3000 -->
      <g transform="translate(292.61012 322.182437)scale(0.1 -0.1)">
       <defs>
        <path d="M 40.578125 39.3125 
Q 47.65625 37.796875 51.625 33 
Q 55.609375 28.21875 55.609375 21.1875 
Q 55.609375 10.40625 48.1875 4.484375 
Q 40.765625 -1.421875 27.09375 -1.421875 
Q 22.515625 -1.421875 17.65625 -0.515625 
Q 12.796875 0.390625 7.625 2.203125 
L 7.625 11.71875 
Q 11.71875 9.328125 16.59375 8.109375 
Q 21.484375 6.890625 26.8125 6.890625 
Q 36.078125 6.890625 40.9375 10.546875 
Q 45.796875 14.203125 45.796875 21.1875 
Q 45.796875 27.640625 41.28125 31.265625 
Q 36.765625 34.90625 28.71875 34.90625 
L 20.21875 34.90625 
L 20.21875 43.015625 
L 29.109375 43.015625 
Q 36.375 43.015625 40.234375 45.921875 
Q 44.09375 48.828125 44.09375 54.296875 
Q 44.09375 59.90625 40.109375 62.90625 
Q 36.140625 65.921875 28.71875 65.921875 
Q 24.65625 65.921875 20.015625 65.03125 
Q 15.375 64.15625 9.8125 62.3125 
L 9.8125 71.09375 
Q 15.4375 72.65625 20.34375 73.4375 
Q 25.25 74.21875 29.59375 74.21875 
Q 40.828125 74.21875 47.359375 69.109375 
Q 53.90625 64.015625 53.90625 55.328125 
Q 53.90625 49.265625 50.4375 45.09375 
Q 46.96875 40.921875 40.578125 39.3125 
z
" id="DejaVuSans-51"/>
       </defs>
       <use xlink:href="#DejaVuSans-51"/>
       <use x="63.623047" xlink:href="#DejaVuSans-48"/>
       <use x="127.246094" xlink:href="#DejaVuSans-48"/>
       <use x="190.869141" xlink:href="#DejaVuSans-48"/>
      </g>
     </g>
    </g>
    <g id="xtick_6">
     <g id="line2d_6">
      <g>
       <use style="stroke:#000000;stroke-width:0.8;" x="360.454737" xlink:href="#mf8f975a669" y="307.584"/>
      </g>
     </g>
     <g id="text_6">
      <!-- 3100 -->
      <g transform="translate(347.729737 322.182437)scale(0.1 -0.1)">
       <defs>
        <path d="M 12.40625 8.296875 
L 28.515625 8.296875 
L 28.515625 63.921875 
L 10.984375 60.40625 
L 10.984375 69.390625 
L 28.421875 72.90625 
L 38.28125 72.90625 
L 38.28125 8.296875 
L 54.390625 8.296875 
L 54.390625 0 
L 12.40625 0 
z
" id="DejaVuSans-49"/>
       </defs>
       <use xlink:href="#DejaVuSans-51"/>
       <use x="63.623047" xlink:href="#DejaVuSans-49"/>
       <use x="127.246094" xlink:href="#DejaVuSans-48"/>
       <use x="190.869141" xlink:href="#DejaVuSans-48"/>
      </g>
     </g>
    </g>
    <g id="text_7">
     <!-- Days -->
     <g transform="translate(223.681875 335.860562)scale(0.1 -0.1)">
      <defs>
       <path d="M 19.671875 64.796875 
L 19.671875 8.109375 
L 31.59375 8.109375 
Q 46.6875 8.109375 53.6875 14.9375 
Q 60.6875 21.78125 60.6875 36.53125 
Q 60.6875 51.171875 53.6875 57.984375 
Q 46.6875 64.796875 31.59375 64.796875 
z
M 9.8125 72.90625 
L 30.078125 72.90625 
Q 51.265625 72.90625 61.171875 64.09375 
Q 71.09375 55.28125 71.09375 36.53125 
Q 71.09375 17.671875 61.125 8.828125 
Q 51.171875 0 30.078125 0 
L 9.8125 0 
z
" id="DejaVuSans-68"/>
       <path d="M 34.28125 27.484375 
Q 23.390625 27.484375 19.1875 25 
Q 14.984375 22.515625 14.984375 16.5 
Q 14.984375 11.71875 18.140625 8.90625 
Q 21.296875 6.109375 26.703125 6.109375 
Q 34.1875 6.109375 38.703125 11.40625 
Q 43.21875 16.703125 43.21875 25.484375 
L 43.21875 27.484375 
z
M 52.203125 31.203125 
L 52.203125 0 
L 43.21875 0 
L 43.21875 8.296875 
Q 40.140625 3.328125 35.546875 0.953125 
Q 30.953125 -1.421875 24.3125 -1.421875 
Q 15.921875 -1.421875 10.953125 3.296875 
Q 6 8.015625 6 15.921875 
Q 6 25.140625 12.171875 29.828125 
Q 18.359375 34.515625 30.609375 34.515625 
L 43.21875 34.515625 
L 43.21875 35.40625 
Q 43.21875 41.609375 39.140625 45 
Q 35.0625 48.390625 27.6875 48.390625 
Q 23 48.390625 18.546875 47.265625 
Q 14.109375 46.140625 10.015625 43.890625 
L 10.015625 52.203125 
Q 14.9375 54.109375 19.578125 55.046875 
Q 24.21875 56 28.609375 56 
Q 40.484375 56 46.34375 49.84375 
Q 52.203125 43.703125 52.203125 31.203125 
z
" id="DejaVuSans-97"/>
       <path d="M 32.171875 -5.078125 
Q 28.375 -14.84375 24.75 -17.8125 
Q 21.140625 -20.796875 15.09375 -20.796875 
L 7.90625 -20.796875 
L 7.90625 -13.28125 
L 13.1875 -13.28125 
Q 16.890625 -13.28125 18.9375 -11.515625 
Q 21 -9.765625 23.484375 -3.21875 
L 25.09375 0.875 
L 2.984375 54.6875 
L 12.5 54.6875 
L 29.59375 11.921875 
L 46.6875 54.6875 
L 56.203125 54.6875 
z
" id="DejaVuSans-121"/>
       <path d="M 44.28125 53.078125 
L 44.28125 44.578125 
Q 40.484375 46.53125 36.375 47.5 
Q 32.28125 48.484375 27.875 48.484375 
Q 21.1875 48.484375 17.84375 46.4375 
Q 14.5 44.390625 14.5 40.28125 
Q 14.5 37.15625 16.890625 35.375 
Q 19.28125 33.59375 26.515625 31.984375 
L 29.59375 31.296875 
Q 39.15625 29.25 43.1875 25.515625 
Q 47.21875 21.78125 47.21875 15.09375 
Q 47.21875 7.46875 41.1875 3.015625 
Q 35.15625 -1.421875 24.609375 -1.421875 
Q 20.21875 -1.421875 15.453125 -0.5625 
Q 10.6875 0.296875 5.421875 2 
L 5.421875 11.28125 
Q 10.40625 8.6875 15.234375 7.390625 
Q 20.0625 6.109375 24.8125 6.109375 
Q 31.15625 6.109375 34.5625 8.28125 
Q 37.984375 10.453125 37.984375 14.40625 
Q 37.984375 18.0625 35.515625 20.015625 
Q 33.0625 21.96875 24.703125 23.78125 
L 21.578125 24.515625 
Q 13.234375 26.265625 9.515625 29.90625 
Q 5.8125 33.546875 5.8125 39.890625 
Q 5.8125 47.609375 11.28125 51.796875 
Q 16.75 56 26.8125 56 
Q 31.78125 56 36.171875 55.265625 
Q 40.578125 54.546875 44.28125 53.078125 
z
" id="DejaVuSans-115"/>
      </defs>
      <use xlink:href="#DejaVuSans-68"/>
      <use x="77.001953" xlink:href="#DejaVuSans-97"/>
      <use x="138.28125" xlink:href="#DejaVuSans-121"/>
      <use x="197.460938" xlink:href="#DejaVuSans-115"/>
     </g>
    </g>
   </g>
   <g id="matplotlib.axis_2">
    <g id="ytick_1">
     <g id="line2d_7">
      <defs>
       <path d="M 0 0 
L -3.5 0 
" id="m8ca3783767" style="stroke:#000000;stroke-width:0.8;"/>
      </defs>
      <g>
       <use style="stroke:#000000;stroke-width:0.8;" x="57.6" xlink:href="#m8ca3783767" y="291.980626"/>
      </g>
     </g>
     <g id="text_8">
      <!-- 350 -->
      <g transform="translate(31.5125 295.779845)scale(0.1 -0.1)">
       <defs>
        <path d="M 10.796875 72.90625 
L 49.515625 72.90625 
L 49.515625 64.59375 
L 19.828125 64.59375 
L 19.828125 46.734375 
Q 21.96875 47.46875 24.109375 47.828125 
Q 26.265625 48.1875 28.421875 48.1875 
Q 40.625 48.1875 47.75 41.5 
Q 54.890625 34.8125 54.890625 23.390625 
Q 54.890625 11.625 47.5625 5.09375 
Q 40.234375 -1.421875 26.90625 -1.421875 
Q 22.3125 -1.421875 17.546875 -0.640625 
Q 12.796875 0.140625 7.71875 1.703125 
L 7.71875 11.625 
Q 12.109375 9.234375 16.796875 8.0625 
Q 21.484375 6.890625 26.703125 6.890625 
Q 35.15625 6.890625 40.078125 11.328125 
Q 45.015625 15.765625 45.015625 23.390625 
Q 45.015625 31 40.078125 35.4375 
Q 35.15625 39.890625 26.703125 39.890625 
Q 22.75 39.890625 18.8125 39.015625 
Q 14.890625 38.140625 10.796875 36.28125 
z
" id="DejaVuSans-53"/>
       </defs>
       <use xlink:href="#DejaVuSans-51"/>
       <use x="63.623047" xlink:href="#DejaVuSans-53"/>
       <use x="127.246094" xlink:href="#DejaVuSans-48"/>
      </g>
     </g>
    </g>
    <g id="ytick_2">
     <g id="line2d_8">
      <g>
       <use style="stroke:#000000;stroke-width:0.8;" x="57.6" xlink:href="#m8ca3783767" y="261.827402"/>
      </g>
     </g>
     <g id="text_9">
      <!-- 400 -->
      <g transform="translate(31.5125 265.62662)scale(0.1 -0.1)">
       <defs>
        <path d="M 37.796875 64.3125 
L 12.890625 25.390625 
L 37.796875 25.390625 
z
M 35.203125 72.90625 
L 47.609375 72.90625 
L 47.609375 25.390625 
L 58.015625 25.390625 
L 58.015625 17.1875 
L 47.609375 17.1875 
L 47.609375 0 
L 37.796875 0 
L 37.796875 17.1875 
L 4.890625 17.1875 
L 4.890625 26.703125 
z
" id="DejaVuSans-52"/>
       </defs>
       <use xlink:href="#DejaVuSans-52"/>
       <use x="63.623047" xlink:href="#DejaVuSans-48"/>
       <use x="127.246094" xlink:href="#DejaVuSans-48"/>
      </g>
     </g>
    </g>
    <g id="ytick_3">
     <g id="line2d_9">
      <g>
       <use style="stroke:#000000;stroke-width:0.8;" x="57.6" xlink:href="#m8ca3783767" y="231.674177"/>
      </g>
     </g>
     <g id="text_10">
      <!-- 450 -->
      <g transform="translate(31.5125 235.473395)scale(0.1 -0.1)">
       <use xlink:href="#DejaVuSans-52"/>
       <use x="63.623047" xlink:href="#DejaVuSans-53"/>
       <use x="127.246094" xlink:href="#DejaVuSans-48"/>
      </g>
     </g>
    </g>
    <g id="ytick_4">
     <g id="line2d_10">
      <g>
       <use style="stroke:#000000;stroke-width:0.8;" x="57.6" xlink:href="#m8ca3783767" y="201.520952"/>
      </g>
     </g>
     <g id="text_11">
      <!-- 500 -->
      <g transform="translate(31.5125 205.320171)scale(0.1 -0.1)">
       <use xlink:href="#DejaVuSans-53"/>
       <use x="63.623047" xlink:href="#DejaVuSans-48"/>
       <use x="127.246094" xlink:href="#DejaVuSans-48"/>
      </g>
     </g>
    </g>
    <g id="ytick_5">
     <g id="line2d_11">
      <g>
       <use style="stroke:#000000;stroke-width:0.8;" x="57.6" xlink:href="#m8ca3783767" y="171.367727"/>
      </g>
     </g>
     <g id="text_12">
      <!-- 550 -->
      <g transform="translate(31.5125 175.166946)scale(0.1 -0.1)">
       <use xlink:href="#DejaVuSans-53"/>
       <use x="63.623047" xlink:href="#DejaVuSans-53"/>
       <use x="127.246094" xlink:href="#DejaVuSans-48"/>
      </g>
     </g>
    </g>
    <g id="ytick_6">
     <g id="line2d_12">
      <g>
       <use style="stroke:#000000;stroke-width:0.8;" x="57.6" xlink:href="#m8ca3783767" y="141.214502"/>
      </g>
     </g>
     <g id="text_13">
      <!-- 600 -->
      <g transform="translate(31.5125 145.013721)scale(0.1 -0.1)">
       <use xlink:href="#DejaVuSans-54"/>
       <use x="63.623047" xlink:href="#DejaVuSans-48"/>
       <use x="127.246094" xlink:href="#DejaVuSans-48"/>
      </g>
     </g>
    </g>
    <g id="ytick_7">
     <g id="line2d_13">
      <g>
       <use style="stroke:#000000;stroke-width:0.8;" x="57.6" xlink:href="#m8ca3783767" y="111.061277"/>
      </g>
     </g>
     <g id="text_14">
      <!-- 650 -->
      <g transform="translate(31.5125 114.860496)scale(0.1 -0.1)">
       <use xlink:href="#DejaVuSans-54"/>
       <use x="63.623047" xlink:href="#DejaVuSans-53"/>
       <use x="127.246094" xlink:href="#DejaVuSans-48"/>
      </g>
     </g>
    </g>
    <g id="ytick_8">
     <g id="line2d_14">
      <g>
       <use style="stroke:#000000;stroke-width:0.8;" x="57.6" xlink:href="#m8ca3783767" y="80.908053"/>
      </g>
     </g>
     <g id="text_15">
      <!-- 700 -->
      <g transform="translate(31.5125 84.707271)scale(0.1 -0.1)">
       <use xlink:href="#DejaVuSans-55"/>
       <use x="63.623047" xlink:href="#DejaVuSans-48"/>
       <use x="127.246094" xlink:href="#DejaVuSans-48"/>
      </g>
     </g>
    </g>
    <g id="ytick_9">
     <g id="line2d_15">
      <g>
       <use style="stroke:#000000;stroke-width:0.8;" x="57.6" xlink:href="#m8ca3783767" y="50.754828"/>
      </g>
     </g>
     <g id="text_16">
      <!-- 750 -->
      <g transform="translate(31.5125 54.554047)scale(0.1 -0.1)">
       <use xlink:href="#DejaVuSans-55"/>
       <use x="63.623047" xlink:href="#DejaVuSans-53"/>
       <use x="127.246094" xlink:href="#DejaVuSans-48"/>
      </g>
     </g>
    </g>
    <g id="text_17">
     <!-- Price -->
     <g transform="translate(25.432812 186.725656)rotate(-90)scale(0.1 -0.1)">
      <defs>
       <path d="M 19.671875 64.796875 
L 19.671875 37.40625 
L 32.078125 37.40625 
Q 38.96875 37.40625 42.71875 40.96875 
Q 46.484375 44.53125 46.484375 51.125 
Q 46.484375 57.671875 42.71875 61.234375 
Q 38.96875 64.796875 32.078125 64.796875 
z
M 9.8125 72.90625 
L 32.078125 72.90625 
Q 44.34375 72.90625 50.609375 67.359375 
Q 56.890625 61.8125 56.890625 51.125 
Q 56.890625 40.328125 50.609375 34.8125 
Q 44.34375 29.296875 32.078125 29.296875 
L 19.671875 29.296875 
L 19.671875 0 
L 9.8125 0 
z
" id="DejaVuSans-80"/>
       <path d="M 41.109375 46.296875 
Q 39.59375 47.171875 37.8125 47.578125 
Q 36.03125 48 33.890625 48 
Q 26.265625 48 22.1875 43.046875 
Q 18.109375 38.09375 18.109375 28.8125 
L 18.109375 0 
L 9.078125 0 
L 9.078125 54.6875 
L 18.109375 54.6875 
L 18.109375 46.1875 
Q 20.953125 51.171875 25.484375 53.578125 
Q 30.03125 56 36.53125 56 
Q 37.453125 56 38.578125 55.875 
Q 39.703125 55.765625 41.0625 55.515625 
z
" id="DejaVuSans-114"/>
       <path d="M 9.421875 54.6875 
L 18.40625 54.6875 
L 18.40625 0 
L 9.421875 0 
z
M 9.421875 75.984375 
L 18.40625 75.984375 
L 18.40625 64.59375 
L 9.421875 64.59375 
z
" id="DejaVuSans-105"/>
       <path d="M 48.78125 52.59375 
L 48.78125 44.1875 
Q 44.96875 46.296875 41.140625 47.34375 
Q 37.3125 48.390625 33.40625 48.390625 
Q 24.65625 48.390625 19.8125 42.84375 
Q 14.984375 37.3125 14.984375 27.296875 
Q 14.984375 17.28125 19.8125 11.734375 
Q 24.65625 6.203125 33.40625 6.203125 
Q 37.3125 6.203125 41.140625 7.25 
Q 44.96875 8.296875 48.78125 10.40625 
L 48.78125 2.09375 
Q 45.015625 0.34375 40.984375 -0.53125 
Q 36.96875 -1.421875 32.421875 -1.421875 
Q 20.0625 -1.421875 12.78125 6.34375 
Q 5.515625 14.109375 5.515625 27.296875 
Q 5.515625 40.671875 12.859375 48.328125 
Q 20.21875 56 33.015625 56 
Q 37.15625 56 41.109375 55.140625 
Q 45.0625 54.296875 48.78125 52.59375 
z
" id="DejaVuSans-99"/>
       <path d="M 56.203125 29.59375 
L 56.203125 25.203125 
L 14.890625 25.203125 
Q 15.484375 15.921875 20.484375 11.0625 
Q 25.484375 6.203125 34.421875 6.203125 
Q 39.59375 6.203125 44.453125 7.46875 
Q 49.3125 8.734375 54.109375 11.28125 
L 54.109375 2.78125 
Q 49.265625 0.734375 44.1875 -0.34375 
Q 39.109375 -1.421875 33.890625 -1.421875 
Q 20.796875 -1.421875 13.15625 6.1875 
Q 5.515625 13.8125 5.515625 26.8125 
Q 5.515625 40.234375 12.765625 48.109375 
Q 20.015625 56 32.328125 56 
Q 43.359375 56 49.78125 48.890625 
Q 56.203125 41.796875 56.203125 29.59375 
z
M 47.21875 32.234375 
Q 47.125 39.59375 43.09375 43.984375 
Q 39.0625 48.390625 32.421875 48.390625 
Q 24.90625 48.390625 20.390625 44.140625 
Q 15.875 39.890625 15.1875 32.171875 
z
" id="DejaVuSans-101"/>
      </defs>
      <use xlink:href="#DejaVuSans-80"/>
      <use x="58.552734" xlink:href="#DejaVuSans-114"/>
      <use x="99.666016" xlink:href="#DejaVuSans-105"/>
      <use x="127.449219" xlink:href="#DejaVuSans-99"/>
      <use x="182.429688" xlink:href="#DejaVuSans-101"/>
     </g>
    </g>
   </g>
   <g id="line2d_16">
    <path clip-path="url(#p220d363c65)" d="M 73.832727 61.609989 
L 74.93512 61.609989 
L 75.486316 61.006924 
L 76.037512 61.609989 
L 76.588708 61.609989 
L 77.139904 62.213053 
L 77.6911 62.213053 
L 78.242297 67.037569 
L 78.793493 67.640634 
L 79.344689 68.846763 
L 79.895885 69.148295 
L 80.447081 70.052892 
L 82.10067 70.052892 
L 82.651866 69.751359 
L 83.754258 69.751359 
L 84.856651 71.560553 
L 85.407847 72.766682 
L 85.959043 73.671279 
L 86.510239 75.17894 
L 87.061435 75.17894 
L 87.612632 76.385069 
L 88.163828 78.495795 
L 88.715024 82.717246 
L 89.26622 83.320311 
L 89.817416 84.52644 
L 90.368612 84.52644 
L 90.919809 85.732569 
L 91.471005 89.95402 
L 92.022201 89.95402 
L 92.573397 97.492326 
L 93.124593 97.492326 
L 93.675789 98.999988 
L 94.226986 102.01531 
L 94.778182 102.01531 
L 96.982967 115.885793 
L 97.534163 116.187326 
L 98.085359 117.996519 
L 98.636555 128.248616 
L 99.187751 130.660874 
L 100.290144 132.470067 
L 100.84134 128.550148 
L 101.392536 127.645551 
L 101.943732 124.630229 
L 103.046124 124.630229 
L 103.597321 122.821035 
L 104.148517 121.614906 
L 105.250909 109.855148 
L 105.802105 101.110713 
L 106.353301 100.809181 
L 106.904498 94.778536 
L 107.455694 94.477004 
L 108.00689 94.477004 
L 108.558086 92.064746 
L 109.109282 90.255552 
L 109.660478 127.645551 
L 111.314067 127.645551 
L 111.865263 130.359341 
L 112.416459 131.263938 
L 112.967656 131.263938 
L 113.518852 131.56547 
L 114.070048 172.272324 
L 114.621244 173.176921 
L 115.17244 175.589179 
L 115.723636 175.890711 
L 116.274833 177.398372 
L 117.928421 177.398372 
L 118.479617 179.509098 
L 119.030813 181.016759 
L 119.58201 181.619824 
L 120.133206 181.921356 
L 120.684402 183.429017 
L 121.235598 185.539743 
L 121.786794 188.555065 
L 122.33799 188.555065 
L 122.889187 189.15813 
L 123.440383 189.15813 
L 123.991579 189.459662 
L 124.542775 190.062726 
L 125.093971 192.173452 
L 126.196364 194.887242 
L 126.74756 195.490307 
L 127.849952 195.490307 
L 128.401148 196.696436 
L 128.952344 198.505629 
L 130.054737 198.505629 
L 130.605933 200.013291 
L 131.157129 200.616355 
L 133.91311 200.616355 
L 134.464306 198.204097 
L 135.015502 194.887242 
L 135.566699 194.887242 
L 136.117895 192.776517 
L 139.425072 192.776517 
L 139.976268 196.093371 
L 141.07866 196.093371 
L 141.629856 196.394904 
L 142.181053 198.505629 
L 147.141818 198.505629 
L 147.693014 196.997968 
L 148.244211 196.093371 
L 149.346603 196.093371 
L 149.897799 190.967323 
L 151.551388 190.967323 
L 152.102584 181.921356 
L 152.65378 180.112162 
L 153.204976 176.795308 
L 154.307368 176.192243 
L 155.960957 176.192243 
L 156.512153 174.684582 
L 157.063349 171.669259 
L 158.165742 171.669259 
L 158.716938 175.287646 
L 159.268134 181.619824 
L 160.370526 181.619824 
L 160.921722 181.016759 
L 161.472919 175.890711 
L 162.024115 175.287646 
L 164.780096 175.287646 
L 165.882488 175.890711 
L 166.433684 176.795308 
L 166.98488 176.795308 
L 167.536077 178.302969 
L 168.087273 178.302969 
L 168.638469 178.604501 
L 169.189665 181.318291 
L 169.740861 189.15813 
L 170.292057 189.15813 
L 170.843254 188.856597 
L 173.599234 188.856597 
L 174.150431 187.650468 
L 175.252823 189.459662 
L 175.804019 196.093371 
L 178.008804 196.093371 
L 178.56 196.997968 
L 179.662392 196.997968 
L 180.213589 196.696436 
L 180.764785 195.188775 
L 181.315981 192.173452 
L 181.867177 185.539743 
L 184.623158 185.539743 
L 185.174354 184.635146 
L 185.72555 185.23821 
L 186.276746 185.23821 
L 186.827943 190.665791 
L 187.379139 192.474984 
L 187.930335 193.379581 
L 189.032727 193.379581 
L 189.583923 193.982646 
L 190.13512 194.887242 
L 190.686316 196.997968 
L 191.237512 201.520952 
L 192.339904 204.234742 
L 192.8911 204.234742 
L 193.442297 204.536274 
L 193.993493 206.043936 
L 194.544689 211.169984 
L 195.095885 214.185306 
L 195.647081 219.311355 
L 196.749474 222.628209 
L 197.30067 222.628209 
L 197.851866 224.135871 
L 198.403062 224.135871 
L 199.505455 229.261919 
L 200.056651 231.372644 
L 200.607847 235.895628 
L 201.159043 237.704822 
L 201.710239 238.307886 
L 205.017416 238.307886 
L 205.568612 237.704822 
L 206.119809 241.021676 
L 206.671005 241.021676 
L 207.222201 241.624741 
L 207.773397 241.624741 
L 208.324593 243.132402 
L 209.426986 244.941596 
L 209.978182 246.449257 
L 211.080574 247.052321 
L 212.182967 250.369176 
L 212.734163 250.670708 
L 216.04134 250.670708 
L 216.592536 247.655386 
L 217.143732 249.464579 
L 217.694928 249.766112 
L 218.246124 249.766112 
L 218.797321 250.369176 
L 219.348517 248.861515 
L 219.899713 239.212483 
L 222.104498 239.212483 
L 222.655694 237.403289 
L 223.20689 237.403289 
L 223.758086 253.987563 
L 224.309282 253.987563 
L 224.860478 256.701353 
L 225.411675 258.209015 
L 225.962871 258.812079 
L 227.065263 258.812079 
L 227.616459 260.018208 
L 228.167656 286.854578 
L 228.718852 287.15611 
L 229.270048 288.663772 
L 229.821244 291.07603 
L 231.474833 291.07603 
L 232.026029 289.869901 
L 232.577225 288.362239 
L 233.128421 287.759175 
L 233.679617 284.44232 
L 234.230813 283.839256 
L 234.78201 283.839256 
L 235.333206 280.522401 
L 236.986794 280.522401 
L 237.53799 280.220869 
L 241.396364 280.220869 
L 241.94756 280.522401 
L 244.152344 280.522401 
L 244.703541 284.140788 
L 245.254737 282.030062 
L 246.357129 282.030062 
L 246.908325 276.904014 
L 247.459522 265.747321 
L 248.010718 264.541192 
L 248.561914 263.938127 
L 249.11311 263.938127 
L 249.664306 255.193692 
L 250.215502 252.781434 
L 250.766699 252.781434 
L 251.317895 249.766112 
L 251.869091 243.433934 
L 252.420287 240.720144 
L 252.971483 241.926273 
L 254.073876 241.926273 
L 254.625072 244.036999 
L 255.176268 249.163047 
L 255.727464 241.624741 
L 256.27866 241.021676 
L 257.381053 241.021676 
L 257.932249 238.006354 
L 258.483445 238.006354 
L 259.034641 237.403289 
L 260.68823 237.403289 
L 261.239426 242.83087 
L 261.790622 244.338531 
L 262.341818 244.640063 
L 262.893014 244.640063 
L 263.444211 234.689499 
L 264.546603 234.689499 
L 265.097799 231.674177 
L 265.648995 230.76958 
L 266.751388 230.76958 
L 267.302584 236.800225 
L 267.85378 236.800225 
L 268.404976 237.704822 
L 268.956172 243.132402 
L 269.507368 243.132402 
L 271.160957 254.89216 
L 271.712153 254.89216 
L 272.263349 262.430466 
L 272.814545 266.651918 
L 273.365742 269.064175 
L 273.916938 269.064175 
L 274.468134 272.984095 
L 275.01933 284.44232 
L 275.570526 286.854578 
L 276.121722 287.15611 
L 276.672919 286.854578 
L 277.775311 286.854578 
L 278.326507 286.251514 
L 278.877703 285.346917 
L 279.4289 282.633127 
L 279.980096 276.602482 
L 281.633684 276.602482 
L 282.18488 273.587159 
L 283.287273 247.353854 
L 283.838469 245.243128 
L 284.940861 245.243128 
L 285.492057 244.640063 
L 286.043254 242.227805 
L 286.59445 241.624741 
L 287.696842 241.624741 
L 288.248038 261.224337 
L 288.799234 264.23966 
L 289.350431 265.445789 
L 289.901627 265.445789 
L 290.452823 266.048853 
L 291.004019 264.842724 
L 295.413589 264.842724 
L 295.964785 266.350385 
L 296.515981 267.254982 
L 297.618373 267.254982 
L 298.169569 264.842724 
L 298.720766 264.842724 
L 299.271962 260.621273 
L 300.374354 241.624741 
L 300.92555 240.720144 
L 302.027943 240.11708 
L 302.579139 239.212483 
L 303.130335 239.212483 
L 304.232727 228.05579 
L 304.783923 227.151193 
L 305.33512 226.849661 
L 305.886316 215.089903 
L 306.437512 211.169984 
L 306.988708 203.93321 
L 307.539904 203.631678 
L 308.0911 201.520952 
L 308.642297 200.013291 
L 309.744689 200.013291 
L 310.295885 195.188775 
L 310.847081 194.58571 
L 311.398278 196.394904 
L 312.50067 196.394904 
L 313.051866 193.078049 
L 313.603062 191.570388 
L 314.154258 188.555065 
L 316.910239 188.555065 
L 317.461435 189.761194 
L 318.563828 189.761194 
L 319.115024 193.078049 
L 319.66622 188.856597 
L 321.871005 188.856597 
L 322.422201 186.444339 
L 322.973397 185.23821 
L 324.075789 185.23821 
L 324.626986 187.650468 
L 325.729378 187.650468 
L 326.280574 189.459662 
L 326.83177 189.459662 
L 327.382967 189.761194 
L 329.036555 189.761194 
L 329.587751 182.222888 
L 330.138947 176.795308 
L 330.690144 168.352405 
L 331.24134 158.100308 
L 331.792536 156.592647 
L 332.343732 146.34055 
L 332.894928 130.962406 
L 333.446124 130.962406 
L 333.997321 130.057809 
L 335.650909 108.950552 
L 336.202105 108.950552 
L 336.753301 118.599584 
L 337.304498 123.122567 
L 337.855694 141.817567 
L 338.40689 141.817567 
L 338.958086 150.863534 
L 339.509282 164.734018 
L 340.060478 171.367727 
L 340.611675 171.367727 
L 341.714067 195.490307 
L 342.265263 200.013291 
L 342.816459 200.013291 
L 343.367656 200.917887 
L 343.918852 200.917887 
L 344.470048 193.078049 
L 345.021244 192.173452 
L 345.57244 189.15813 
L 346.123636 184.936678 
L 346.674833 184.635146 
L 347.226029 176.795308 
L 348.328421 171.669259 
L 348.879617 171.669259 
L 349.430813 163.829421 
L 349.98201 162.020227 
L 350.533206 160.814098 
L 351.084402 160.814098 
L 351.635598 150.863534 
L 352.186794 147.848212 
L 354.391579 147.848212 
L 354.942775 148.149744 
L 356.596364 148.149744 
L 357.14756 151.768131 
L 358.249952 139.405309 
L 359.352344 139.405309 
L 360.454737 136.691519 
L 361.005933 135.786922 
L 361.557129 135.786922 
L 362.108325 136.088454 
L 362.659522 136.088454 
L 363.210718 141.214502 
L 363.761914 147.546679 
L 364.31311 150.26047 
L 365.415502 150.26047 
L 366.517895 155.386518 
L 367.069091 157.497244 
L 367.620287 159.004905 
L 368.171483 159.607969 
L 368.722679 161.417163 
L 369.273876 161.417163 
L 369.825072 165.03555 
L 370.927464 165.03555 
L 371.47866 165.337082 
L 372.029856 165.940147 
L 372.581053 165.940147 
L 373.132249 170.161598 
L 373.683445 164.130953 
L 374.234641 163.226356 
L 374.785837 161.718695 
L 375.337033 156.894179 
L 376.439426 156.894179 
L 376.990622 153.275792 
L 377.541818 153.275792 
L 378.644211 140.008373 
L 379.195407 127.344019 
L 379.746603 118.901116 
L 380.848995 118.901116 
L 381.400191 114.0766 
L 381.951388 112.568939 
L 382.502584 112.267406 
L 383.05378 105.030632 
L 383.604976 102.01531 
L 384.156172 97.492326 
L 384.707368 100.809181 
L 385.258565 114.378132 
L 385.809761 118.298051 
L 386.360957 126.740954 
L 386.912153 130.660874 
L 388.014545 130.660874 
L 388.565742 122.217971 
L 390.770526 122.217971 
L 391.321722 112.267406 
L 391.872919 111.36281 
L 392.424115 107.744423 
L 392.975311 107.744423 
L 393.526507 104.126036 
L 394.077703 102.919907 
L 394.6289 96.286197 
L 395.731292 96.286197 
L 396.282488 95.080068 
L 396.833684 95.080068 
L 397.38488 93.270875 
L 397.936077 76.083537 
L 398.487273 73.671279 
L 398.487273 73.671279 
" style="fill:none;stroke:#0000ff;stroke-linecap:square;stroke-width:1.5;"/>
   </g>
   <g id="line2d_17">
    <path clip-path="url(#p220d363c65)" d="M 73.832727 54.802876 
L 74.93512 53.650634 
L 76.037512 53.568 
L 76.588708 53.824553 
L 77.139904 54.371853 
L 78.242297 56.301299 
L 79.344689 58.354051 
L 80.447081 61.221626 
L 81.549474 63.015949 
L 82.651866 64.275045 
L 83.203062 64.352084 
L 83.754258 64.191454 
L 84.305455 63.520662 
L 84.856651 63.06137 
L 85.407847 62.758918 
L 85.959043 62.811774 
L 86.510239 63.021323 
L 87.061435 63.454076 
L 87.612632 64.06303 
L 88.715024 65.775013 
L 89.26622 66.603012 
L 89.817416 67.79416 
L 90.368612 69.512806 
L 92.573397 74.394779 
L 94.226986 81.009091 
L 95.329378 86.509809 
L 97.534163 98.040473 
L 99.187751 108.040213 
L 101.392536 120.586376 
L 101.943732 122.817575 
L 102.494928 122.287096 
L 103.046124 120.803029 
L 104.148517 115.401104 
L 105.250909 110.0612 
L 106.904498 102.229055 
L 108.558086 94.240696 
L 109.660478 89.556603 
L 110.211675 87.662934 
L 110.762871 86.515551 
L 111.314067 92.244811 
L 112.416459 108.595316 
L 114.070048 133.984207 
L 115.17244 147.085032 
L 116.274833 158.705508 
L 116.826029 163.508123 
L 117.377225 167.256737 
L 117.928421 169.980502 
L 118.479617 171.551878 
L 119.030813 171.895813 
L 119.58201 171.609483 
L 121.235598 169.656517 
L 121.786794 169.325207 
L 122.33799 169.543074 
L 122.889187 170.611025 
L 123.991579 174.720801 
L 125.093971 179.644441 
L 126.74756 184.701401 
L 128.401148 189.628206 
L 128.952344 191.033136 
L 129.503541 191.982896 
L 133.361914 196.288859 
L 134.464306 196.996901 
L 135.015502 197.139716 
L 135.566699 197.422292 
L 136.117895 196.889881 
L 137.771483 193.911201 
L 138.322679 193.192301 
L 138.873876 192.872439 
L 139.425072 192.927577 
L 139.976268 193.194731 
L 140.527464 193.25101 
L 141.07866 193.564984 
L 141.629856 194.169668 
L 142.732249 196.044233 
L 144.385837 199.135729 
L 144.937033 199.680692 
L 146.039426 200.28637 
L 146.590622 200.262942 
L 147.693014 199.95968 
L 148.795407 199.225928 
L 151.000191 195.802422 
L 152.102584 192.935712 
L 153.204976 191.210809 
L 154.307368 184.614129 
L 155.409761 175.365496 
L 155.960957 172.87329 
L 156.512153 171.3173 
L 157.063349 171.095531 
L 157.614545 172.15693 
L 158.165742 173.872189 
L 159.268134 178.293951 
L 160.370526 183.838802 
L 161.472919 190.086689 
L 162.024115 192.510394 
L 162.575311 193.378698 
L 163.126507 192.045249 
L 164.2289 188.42263 
L 164.780096 186.481957 
L 166.433684 182.079999 
L 167.536077 179.832568 
L 168.087273 179.664649 
L 168.638469 180.23823 
L 169.189665 181.505608 
L 172.496842 190.724132 
L 173.599234 193.079853 
L 174.150431 193.888785 
L 174.701627 194.173128 
L 176.355215 192.957797 
L 176.906411 192.962471 
L 178.008804 194.028398 
L 179.111196 194.342316 
L 179.662392 194.383173 
L 180.764785 194.173385 
L 181.315981 194.256425 
L 182.418373 193.821721 
L 182.969569 193.159947 
L 184.623158 189.239733 
L 185.174354 188.320818 
L 185.72555 187.783935 
L 186.276746 187.557086 
L 186.827943 187.466023 
L 187.379139 187.867084 
L 187.930335 188.414127 
L 188.481531 189.416523 
L 190.686316 195.176922 
L 191.237512 195.962353 
L 191.788708 196.497138 
L 192.339904 196.854527 
L 193.442297 199.058819 
L 195.647081 204.006292 
L 196.198278 205.918254 
L 199.505455 220.455241 
L 202.261435 232.563535 
L 202.812632 234.494968 
L 203.363828 235.75526 
L 203.915024 236.440609 
L 204.46622 236.947789 
L 205.017416 237.084292 
L 205.568612 237.05387 
L 206.671005 236.659986 
L 207.222201 236.741663 
L 207.773397 237.448453 
L 209.978182 241.439375 
L 211.63177 246.082464 
L 212.734163 249.435483 
L 213.285359 250.602098 
L 214.387751 251.8828 
L 214.938947 252.201908 
L 217.143732 251.98647 
L 218.246124 251.535019 
L 218.797321 251.718305 
L 219.348517 251.714182 
L 219.899713 252.027916 
L 220.450909 252.193166 
L 221.002105 251.791719 
L 223.20689 241.623839 
L 224.860478 236.611123 
L 225.411675 239.369617 
L 225.962871 243.241336 
L 227.065263 254.771944 
L 228.718852 272.579003 
L 230.37244 286.079031 
L 230.923636 289.200858 
L 231.474833 291.498458 
L 232.026029 293.136328 
L 232.577225 294.046575 
L 233.128421 294.149895 
L 233.679617 293.601344 
L 234.78201 290.927012 
L 235.884402 287.236463 
L 236.435598 285.885494 
L 237.53799 282.527303 
L 238.089187 281.45753 
L 238.640383 281.08413 
L 239.191579 281.524834 
L 239.742775 282.203686 
L 240.293971 283.270901 
L 240.845167 284.92666 
L 242.498756 288.358522 
L 243.601148 292.384909 
L 244.703541 294.895518 
L 245.254737 295.488 
L 245.805933 295.334933 
L 246.357129 294.848146 
L 246.908325 293.987645 
L 248.010718 291.634961 
L 248.561914 288.995376 
L 250.766699 267.779866 
L 251.317895 262.029846 
L 251.869091 257.559995 
L 252.420287 254.258103 
L 252.971483 251.863421 
L 253.522679 250.62641 
L 254.073876 250.768471 
L 254.625072 251.553864 
L 255.176268 252.922593 
L 256.829856 257.911476 
L 257.381053 257.53918 
L 257.932249 256.974212 
L 259.585837 254.438831 
L 262.341818 252.520925 
L 262.893014 252.363146 
L 263.444211 253.062888 
L 263.995407 253.324685 
L 264.546603 253.185459 
L 265.648995 248.778954 
L 266.751388 241.232164 
L 267.302584 237.555804 
L 267.85378 235.044127 
L 268.404976 234.051062 
L 268.956172 233.348524 
L 269.507368 233.709427 
L 270.058565 234.920323 
L 270.609761 238.080854 
L 271.160957 240.442298 
L 271.712153 244.277853 
L 273.916938 264.375794 
L 275.570526 279.681151 
L 276.672919 289.135965 
L 277.224115 291.920095 
L 277.775311 293.344055 
L 278.326507 293.964622 
L 278.877703 293.558113 
L 279.4289 291.713215 
L 281.082488 284.020628 
L 281.633684 280.987067 
L 282.736077 276.598065 
L 283.838469 273.817192 
L 284.389665 271.012357 
L 285.492057 264.568154 
L 286.043254 262.464495 
L 286.59445 261.085239 
L 287.145646 260.468776 
L 287.696842 260.418993 
L 288.248038 260.961601 
L 288.799234 261.890638 
L 289.350431 263.44361 
L 289.901627 266.235489 
L 291.555215 278.4702 
L 292.106411 281.184524 
L 292.657608 281.505675 
L 293.208804 280.854742 
L 295.413589 276.138386 
L 295.964785 274.818134 
L 297.618373 271.998612 
L 298.169569 271.645475 
L 298.720766 271.916585 
L 299.271962 271.920156 
L 299.823158 271.601231 
L 300.374354 271.080507 
L 300.92555 270.147623 
L 301.476746 266.635814 
L 303.130335 253.508524 
L 304.232727 243.228582 
L 305.886316 230.645297 
L 306.437512 227.943212 
L 306.988708 226.055231 
L 308.642297 218.14461 
L 310.295885 213.999388 
L 311.949474 211.049603 
L 312.50067 210.348813 
L 313.051866 210.274184 
L 313.603062 210.701784 
L 314.154258 210.864053 
L 314.705455 210.093548 
L 315.807847 207.065122 
L 316.910239 204.097558 
L 317.461435 203.048802 
L 319.115024 200.608 
L 320.217416 197.774749 
L 321.319809 195.928839 
L 321.871005 195.460474 
L 322.422201 195.205449 
L 322.973397 194.710747 
L 323.524593 194.062409 
L 324.075789 193.616846 
L 324.626986 193.331731 
L 325.178182 193.4737 
L 325.729378 193.787305 
L 326.280574 194.272657 
L 326.83177 194.987692 
L 327.382967 195.463492 
L 327.934163 195.747375 
L 328.485359 196.272222 
L 329.036555 196.304871 
L 330.690144 195.25179 
L 331.24134 193.048308 
L 331.792536 188.740137 
L 332.343732 181.963722 
L 333.997321 155.645169 
L 334.548517 145.392336 
L 336.202105 123.789862 
L 336.753301 119.653253 
L 337.304498 117.702643 
L 337.855694 117.519081 
L 338.40689 121.719368 
L 338.958086 128.287927 
L 340.060478 147.675582 
L 341.162871 170.498172 
L 342.265263 188.060879 
L 343.367656 200.301958 
L 343.918852 204.431334 
L 344.470048 207.287351 
L 345.021244 208.937754 
L 345.57244 209.401592 
L 346.123636 207.563118 
L 346.674833 204.693464 
L 347.777225 196.482967 
L 348.328421 191.061442 
L 349.98201 170.862388 
L 351.084402 161.253588 
L 351.635598 158.626333 
L 353.840383 154.606701 
L 354.942775 153.957 
L 355.493971 153.958473 
L 356.045167 154.294273 
L 356.596364 155.128162 
L 357.14756 155.496795 
L 357.698756 155.536585 
L 358.249952 155.434737 
L 358.801148 155.171485 
L 359.352344 153.066612 
L 360.454737 147.497136 
L 361.005933 145.577297 
L 361.557129 144.415963 
L 362.108325 143.935617 
L 362.659522 143.029401 
L 363.210718 142.875212 
L 363.761914 143.155395 
L 364.31311 143.650612 
L 364.864306 144.565552 
L 367.069091 150.830665 
L 369.273876 159.669255 
L 369.825072 160.546945 
L 370.927464 161.487908 
L 371.47866 162.415915 
L 372.029856 163.842414 
L 374.785837 173.116371 
L 375.337033 172.8568 
L 375.88823 170.707095 
L 377.541818 162.725508 
L 379.746603 147.189015 
L 380.297799 142.845728 
L 381.400191 130.074336 
L 381.951388 124.747168 
L 383.05378 118.72959 
L 383.604976 117.072635 
L 384.156172 117.259068 
L 384.707368 118.017794 
L 385.809761 120.536244 
L 386.360957 122.090725 
L 388.014545 130.264892 
L 388.565742 132.158449 
L 389.116938 132.833511 
L 389.668134 132.026087 
L 390.21933 130.591932 
L 391.321722 126.470415 
L 391.872919 124.492456 
L 393.526507 120.817016 
L 394.6289 119.875574 
L 395.731292 114.588969 
L 397.38488 101.049796 
L 398.487273 93.257219 
L 398.487273 93.257219 
" style="fill:none;stroke:#ff0000;stroke-linecap:square;stroke-width:1.5;"/>
   </g>
   <g id="patch_3">
    <path d="M 57.6 307.584 
L 57.6 41.472 
" style="fill:none;stroke:#000000;stroke-linecap:square;stroke-linejoin:miter;stroke-width:0.8;"/>
   </g>
   <g id="patch_4">
    <path d="M 414.72 307.584 
L 414.72 41.472 
" style="fill:none;stroke:#000000;stroke-linecap:square;stroke-linejoin:miter;stroke-width:0.8;"/>
   </g>
   <g id="patch_5">
    <path d="M 57.6 307.584 
L 414.72 307.584 
" style="fill:none;stroke:#000000;stroke-linecap:square;stroke-linejoin:miter;stroke-width:0.8;"/>
   </g>
   <g id="patch_6">
    <path d="M 57.6 41.472 
L 414.72 41.472 
" style="fill:none;stroke:#000000;stroke-linecap:square;stroke-linejoin:miter;stroke-width:0.8;"/>
   </g>
   <g id="legend_1">
    <g id="patch_7">
     <path d="M 64.6 302.584 
L 171.114062 302.584 
Q 173.114062 302.584 173.114062 300.584 
L 173.114062 272.22775 
Q 173.114062 270.22775 171.114062 270.22775 
L 64.6 270.22775 
Q 62.6 270.22775 62.6 272.22775 
L 62.6 300.584 
Q 62.6 302.584 64.6 302.584 
z
" style="fill:#ffffff;opacity:0.8;stroke:#cccccc;stroke-linejoin:miter;"/>
    </g>
    <g id="line2d_18">
     <path d="M 66.6 278.326187 
L 86.6 278.326187 
" style="fill:none;stroke:#0000ff;stroke-linecap:square;stroke-width:1.5;"/>
    </g>
    <g id="line2d_19"/>
    <g id="text_18">
     <!-- Actual Price -->
     <g transform="translate(94.6 281.826187)scale(0.1 -0.1)">
      <defs>
       <path d="M 34.1875 63.1875 
L 20.796875 26.90625 
L 47.609375 26.90625 
z
M 28.609375 72.90625 
L 39.796875 72.90625 
L 67.578125 0 
L 57.328125 0 
L 50.6875 18.703125 
L 17.828125 18.703125 
L 11.1875 0 
L 0.78125 0 
z
" id="DejaVuSans-65"/>
       <path d="M 18.3125 70.21875 
L 18.3125 54.6875 
L 36.8125 54.6875 
L 36.8125 47.703125 
L 18.3125 47.703125 
L 18.3125 18.015625 
Q 18.3125 11.328125 20.140625 9.421875 
Q 21.96875 7.515625 27.59375 7.515625 
L 36.8125 7.515625 
L 36.8125 0 
L 27.59375 0 
Q 17.1875 0 13.234375 3.875 
Q 9.28125 7.765625 9.28125 18.015625 
L 9.28125 47.703125 
L 2.6875 47.703125 
L 2.6875 54.6875 
L 9.28125 54.6875 
L 9.28125 70.21875 
z
" id="DejaVuSans-116"/>
       <path d="M 8.5 21.578125 
L 8.5 54.6875 
L 17.484375 54.6875 
L 17.484375 21.921875 
Q 17.484375 14.15625 20.5 10.265625 
Q 23.53125 6.390625 29.59375 6.390625 
Q 36.859375 6.390625 41.078125 11.03125 
Q 45.3125 15.671875 45.3125 23.6875 
L 45.3125 54.6875 
L 54.296875 54.6875 
L 54.296875 0 
L 45.3125 0 
L 45.3125 8.40625 
Q 42.046875 3.421875 37.71875 1 
Q 33.40625 -1.421875 27.6875 -1.421875 
Q 18.265625 -1.421875 13.375 4.4375 
Q 8.5 10.296875 8.5 21.578125 
z
M 31.109375 56 
z
" id="DejaVuSans-117"/>
       <path d="M 9.421875 75.984375 
L 18.40625 75.984375 
L 18.40625 0 
L 9.421875 0 
z
" id="DejaVuSans-108"/>
       <path id="DejaVuSans-32"/>
      </defs>
      <use xlink:href="#DejaVuSans-65"/>
      <use x="66.658203" xlink:href="#DejaVuSans-99"/>
      <use x="121.638672" xlink:href="#DejaVuSans-116"/>
      <use x="160.847656" xlink:href="#DejaVuSans-117"/>
      <use x="224.226562" xlink:href="#DejaVuSans-97"/>
      <use x="285.505859" xlink:href="#DejaVuSans-108"/>
      <use x="313.289062" xlink:href="#DejaVuSans-32"/>
      <use x="345.076172" xlink:href="#DejaVuSans-80"/>
      <use x="403.628906" xlink:href="#DejaVuSans-114"/>
      <use x="444.742188" xlink:href="#DejaVuSans-105"/>
      <use x="472.525391" xlink:href="#DejaVuSans-99"/>
      <use x="527.505859" xlink:href="#DejaVuSans-101"/>
     </g>
    </g>
    <g id="line2d_20">
     <path d="M 66.6 293.004312 
L 86.6 293.004312 
" style="fill:none;stroke:#ff0000;stroke-linecap:square;stroke-width:1.5;"/>
    </g>
    <g id="line2d_21"/>
    <g id="text_19">
     <!-- Predicted Price -->
     <g transform="translate(94.6 296.504312)scale(0.1 -0.1)">
      <defs>
       <path d="M 45.40625 46.390625 
L 45.40625 75.984375 
L 54.390625 75.984375 
L 54.390625 0 
L 45.40625 0 
L 45.40625 8.203125 
Q 42.578125 3.328125 38.25 0.953125 
Q 33.9375 -1.421875 27.875 -1.421875 
Q 17.96875 -1.421875 11.734375 6.484375 
Q 5.515625 14.40625 5.515625 27.296875 
Q 5.515625 40.1875 11.734375 48.09375 
Q 17.96875 56 27.875 56 
Q 33.9375 56 38.25 53.625 
Q 42.578125 51.265625 45.40625 46.390625 
z
M 14.796875 27.296875 
Q 14.796875 17.390625 18.875 11.75 
Q 22.953125 6.109375 30.078125 6.109375 
Q 37.203125 6.109375 41.296875 11.75 
Q 45.40625 17.390625 45.40625 27.296875 
Q 45.40625 37.203125 41.296875 42.84375 
Q 37.203125 48.484375 30.078125 48.484375 
Q 22.953125 48.484375 18.875 42.84375 
Q 14.796875 37.203125 14.796875 27.296875 
z
" id="DejaVuSans-100"/>
      </defs>
      <use xlink:href="#DejaVuSans-80"/>
      <use x="58.552734" xlink:href="#DejaVuSans-114"/>
      <use x="97.416016" xlink:href="#DejaVuSans-101"/>
      <use x="158.939453" xlink:href="#DejaVuSans-100"/>
      <use x="222.416016" xlink:href="#DejaVuSans-105"/>
      <use x="250.199219" xlink:href="#DejaVuSans-99"/>
      <use x="305.179688" xlink:href="#DejaVuSans-116"/>
      <use x="344.388672" xlink:href="#DejaVuSans-101"/>
      <use x="405.912109" xlink:href="#DejaVuSans-100"/>
      <use x="469.388672" xlink:href="#DejaVuSans-32"/>
      <use x="501.175781" xlink:href="#DejaVuSans-80"/>
      <use x="559.728516" xlink:href="#DejaVuSans-114"/>
      <use x="600.841797" xlink:href="#DejaVuSans-105"/>
      <use x="628.625" xlink:href="#DejaVuSans-99"/>
      <use x="683.605469" xlink:href="#DejaVuSans-101"/>
     </g>
    </g>
   </g>
  </g>
 </g>
 <defs>
  <clipPath id="p220d363c65">
   <rect height="266.112" width="357.12" x="57.6" y="41.472"/>
  </clipPath>
 </defs>
</svg>
