<?xml version="1.0" encoding="utf-8" standalone="no"?>
<!DOCTYPE svg PUBLIC "-//W3C//DTD SVG 1.1//EN"
  "http://www.w3.org/Graphics/SVG/1.1/DTD/svg11.dtd">
<!-- Created with matplotlib (https://matplotlib.org/) -->
<svg height="345.6pt" version="1.1" viewBox="0 0 460.8 345.6" width="460.8pt" xmlns="http://www.w3.org/2000/svg" xmlns:xlink="http://www.w3.org/1999/xlink">
 <metadata>
  <rdf:RDF xmlns:cc="http://creativecommons.org/ns#" xmlns:dc="http://purl.org/dc/elements/1.1/" xmlns:rdf="http://www.w3.org/1999/02/22-rdf-syntax-ns#">
   <cc:Work>
    <dc:type rdf:resource="http://purl.org/dc/dcmitype/StillImage"/>
    <dc:date>2021-05-28T18:29:02.407779</dc:date>
    <dc:format>image/svg+xml</dc:format>
    <dc:creator>
     <cc:Agent>
      <dc:title>Matplotlib v3.3.3, https://matplotlib.org/</dc:title>
     </cc:Agent>
    </dc:creator>
   </cc:Work>
  </rdf:RDF>
 </metadata>
 <defs>
  <style type="text/css">*{stroke-linecap:butt;stroke-linejoin:round;}</style>
 </defs>
 <g id="figure_1">
  <g id="patch_1">
   <path d="M 0 345.6 
L 460.8 345.6 
L 460.8 0 
L 0 0 
z
" style="fill:#ffffff;"/>
  </g>
  <g id="axes_1">
   <g id="patch_2">
    <path d="M 57.6 307.584 
L 414.72 307.584 
L 414.72 41.472 
L 57.6 41.472 
z
" style="fill:#ffffff;"/>
   </g>
   <g id="matplotlib.axis_1">
    <g id="xtick_1">
     <g id="line2d_1">
      <defs>
       <path d="M 0 0 
L 0 3.5 
" id="m376170331f" style="stroke:#000000;stroke-width:0.8;"/>
      </defs>
      <g>
       <use style="stroke:#000000;stroke-width:0.8;" x="66.304506" xlink:href="#m376170331f" y="307.584"/>
      </g>
     </g>
     <g id="text_1">
      <!-- 1600 -->
      <g transform="translate(53.579506 322.182437)scale(0.1 -0.1)">
       <defs>
        <path d="M 12.40625 8.296875 
L 28.515625 8.296875 
L 28.515625 63.921875 
L 10.984375 60.40625 
L 10.984375 69.390625 
L 28.421875 72.90625 
L 38.28125 72.90625 
L 38.28125 8.296875 
L 54.390625 8.296875 
L 54.390625 0 
L 12.40625 0 
z
" id="DejaVuSans-49"/>
        <path d="M 33.015625 40.375 
Q 26.375 40.375 22.484375 35.828125 
Q 18.609375 31.296875 18.609375 23.390625 
Q 18.609375 15.53125 22.484375 10.953125 
Q 26.375 6.390625 33.015625 6.390625 
Q 39.65625 6.390625 43.53125 10.953125 
Q 47.40625 15.53125 47.40625 23.390625 
Q 47.40625 31.296875 43.53125 35.828125 
Q 39.65625 40.375 33.015625 40.375 
z
M 52.59375 71.296875 
L 52.59375 62.3125 
Q 48.875 64.0625 45.09375 64.984375 
Q 41.3125 65.921875 37.59375 65.921875 
Q 27.828125 65.921875 22.671875 59.328125 
Q 17.53125 52.734375 16.796875 39.40625 
Q 19.671875 43.65625 24.015625 45.921875 
Q 28.375 48.1875 33.59375 48.1875 
Q 44.578125 48.1875 50.953125 41.515625 
Q 57.328125 34.859375 57.328125 23.390625 
Q 57.328125 12.15625 50.6875 5.359375 
Q 44.046875 -1.421875 33.015625 -1.421875 
Q 20.359375 -1.421875 13.671875 8.265625 
Q 6.984375 17.96875 6.984375 36.375 
Q 6.984375 53.65625 15.1875 63.9375 
Q 23.390625 74.21875 37.203125 74.21875 
Q 40.921875 74.21875 44.703125 73.484375 
Q 48.484375 72.75 52.59375 71.296875 
z
" id="DejaVuSans-54"/>
        <path d="M 31.78125 66.40625 
Q 24.171875 66.40625 20.328125 58.90625 
Q 16.5 51.421875 16.5 36.375 
Q 16.5 21.390625 20.328125 13.890625 
Q 24.171875 6.390625 31.78125 6.390625 
Q 39.453125 6.390625 43.28125 13.890625 
Q 47.125 21.390625 47.125 36.375 
Q 47.125 51.421875 43.28125 58.90625 
Q 39.453125 66.40625 31.78125 66.40625 
z
M 31.78125 74.21875 
Q 44.046875 74.21875 50.515625 64.515625 
Q 56.984375 54.828125 56.984375 36.375 
Q 56.984375 17.96875 50.515625 8.265625 
Q 44.046875 -1.421875 31.78125 -1.421875 
Q 19.53125 -1.421875 13.0625 8.265625 
Q 6.59375 17.96875 6.59375 36.375 
Q 6.59375 54.828125 13.0625 64.515625 
Q 19.53125 74.21875 31.78125 74.21875 
z
" id="DejaVuSans-48"/>
       </defs>
       <use xlink:href="#DejaVuSans-49"/>
       <use x="63.623047" xlink:href="#DejaVuSans-54"/>
       <use x="127.246094" xlink:href="#DejaVuSans-48"/>
       <use x="190.869141" xlink:href="#DejaVuSans-48"/>
      </g>
     </g>
    </g>
    <g id="xtick_2">
     <g id="line2d_2">
      <g>
       <use style="stroke:#000000;stroke-width:0.8;" x="113.355889" xlink:href="#m376170331f" y="307.584"/>
      </g>
     </g>
     <g id="text_2">
      <!-- 1650 -->
      <g transform="translate(100.630889 322.182437)scale(0.1 -0.1)">
       <defs>
        <path d="M 10.796875 72.90625 
L 49.515625 72.90625 
L 49.515625 64.59375 
L 19.828125 64.59375 
L 19.828125 46.734375 
Q 21.96875 47.46875 24.109375 47.828125 
Q 26.265625 48.1875 28.421875 48.1875 
Q 40.625 48.1875 47.75 41.5 
Q 54.890625 34.8125 54.890625 23.390625 
Q 54.890625 11.625 47.5625 5.09375 
Q 40.234375 -1.421875 26.90625 -1.421875 
Q 22.3125 -1.421875 17.546875 -0.640625 
Q 12.796875 0.140625 7.71875 1.703125 
L 7.71875 11.625 
Q 12.109375 9.234375 16.796875 8.0625 
Q 21.484375 6.890625 26.703125 6.890625 
Q 35.15625 6.890625 40.078125 11.328125 
Q 45.015625 15.765625 45.015625 23.390625 
Q 45.015625 31 40.078125 35.4375 
Q 35.15625 39.890625 26.703125 39.890625 
Q 22.75 39.890625 18.8125 39.015625 
Q 14.890625 38.140625 10.796875 36.28125 
z
" id="DejaVuSans-53"/>
       </defs>
       <use xlink:href="#DejaVuSans-49"/>
       <use x="63.623047" xlink:href="#DejaVuSans-54"/>
       <use x="127.246094" xlink:href="#DejaVuSans-53"/>
       <use x="190.869141" xlink:href="#DejaVuSans-48"/>
      </g>
     </g>
    </g>
    <g id="xtick_3">
     <g id="line2d_3">
      <g>
       <use style="stroke:#000000;stroke-width:0.8;" x="160.407273" xlink:href="#m376170331f" y="307.584"/>
      </g>
     </g>
     <g id="text_3">
      <!-- 1700 -->
      <g transform="translate(147.682273 322.182437)scale(0.1 -0.1)">
       <defs>
        <path d="M 8.203125 72.90625 
L 55.078125 72.90625 
L 55.078125 68.703125 
L 28.609375 0 
L 18.3125 0 
L 43.21875 64.59375 
L 8.203125 64.59375 
z
" id="DejaVuSans-55"/>
       </defs>
       <use xlink:href="#DejaVuSans-49"/>
       <use x="63.623047" xlink:href="#DejaVuSans-55"/>
       <use x="127.246094" xlink:href="#DejaVuSans-48"/>
       <use x="190.869141" xlink:href="#DejaVuSans-48"/>
      </g>
     </g>
    </g>
    <g id="xtick_4">
     <g id="line2d_4">
      <g>
       <use style="stroke:#000000;stroke-width:0.8;" x="207.458656" xlink:href="#m376170331f" y="307.584"/>
      </g>
     </g>
     <g id="text_4">
      <!-- 1750 -->
      <g transform="translate(194.733656 322.182437)scale(0.1 -0.1)">
       <use xlink:href="#DejaVuSans-49"/>
       <use x="63.623047" xlink:href="#DejaVuSans-55"/>
       <use x="127.246094" xlink:href="#DejaVuSans-53"/>
       <use x="190.869141" xlink:href="#DejaVuSans-48"/>
      </g>
     </g>
    </g>
    <g id="xtick_5">
     <g id="line2d_5">
      <g>
       <use style="stroke:#000000;stroke-width:0.8;" x="254.51004" xlink:href="#m376170331f" y="307.584"/>
      </g>
     </g>
     <g id="text_5">
      <!-- 1800 -->
      <g transform="translate(241.78504 322.182437)scale(0.1 -0.1)">
       <defs>
        <path d="M 31.78125 34.625 
Q 24.75 34.625 20.71875 30.859375 
Q 16.703125 27.09375 16.703125 20.515625 
Q 16.703125 13.921875 20.71875 10.15625 
Q 24.75 6.390625 31.78125 6.390625 
Q 38.8125 6.390625 42.859375 10.171875 
Q 46.921875 13.96875 46.921875 20.515625 
Q 46.921875 27.09375 42.890625 30.859375 
Q 38.875 34.625 31.78125 34.625 
z
M 21.921875 38.8125 
Q 15.578125 40.375 12.03125 44.71875 
Q 8.5 49.078125 8.5 55.328125 
Q 8.5 64.0625 14.71875 69.140625 
Q 20.953125 74.21875 31.78125 74.21875 
Q 42.671875 74.21875 48.875 69.140625 
Q 55.078125 64.0625 55.078125 55.328125 
Q 55.078125 49.078125 51.53125 44.71875 
Q 48 40.375 41.703125 38.8125 
Q 48.828125 37.15625 52.796875 32.3125 
Q 56.78125 27.484375 56.78125 20.515625 
Q 56.78125 9.90625 50.3125 4.234375 
Q 43.84375 -1.421875 31.78125 -1.421875 
Q 19.734375 -1.421875 13.25 4.234375 
Q 6.78125 9.90625 6.78125 20.515625 
Q 6.78125 27.484375 10.78125 32.3125 
Q 14.796875 37.15625 21.921875 38.8125 
z
M 18.3125 54.390625 
Q 18.3125 48.734375 21.84375 45.5625 
Q 25.390625 42.390625 31.78125 42.390625 
Q 38.140625 42.390625 41.71875 45.5625 
Q 45.3125 48.734375 45.3125 54.390625 
Q 45.3125 60.0625 41.71875 63.234375 
Q 38.140625 66.40625 31.78125 66.40625 
Q 25.390625 66.40625 21.84375 63.234375 
Q 18.3125 60.0625 18.3125 54.390625 
z
" id="DejaVuSans-56"/>
       </defs>
       <use xlink:href="#DejaVuSans-49"/>
       <use x="63.623047" xlink:href="#DejaVuSans-56"/>
       <use x="127.246094" xlink:href="#DejaVuSans-48"/>
       <use x="190.869141" xlink:href="#DejaVuSans-48"/>
      </g>
     </g>
    </g>
    <g id="xtick_6">
     <g id="line2d_6">
      <g>
       <use style="stroke:#000000;stroke-width:0.8;" x="301.561423" xlink:href="#m376170331f" y="307.584"/>
      </g>
     </g>
     <g id="text_6">
      <!-- 1850 -->
      <g transform="translate(288.836423 322.182437)scale(0.1 -0.1)">
       <use xlink:href="#DejaVuSans-49"/>
       <use x="63.623047" xlink:href="#DejaVuSans-56"/>
       <use x="127.246094" xlink:href="#DejaVuSans-53"/>
       <use x="190.869141" xlink:href="#DejaVuSans-48"/>
      </g>
     </g>
    </g>
    <g id="xtick_7">
     <g id="line2d_7">
      <g>
       <use style="stroke:#000000;stroke-width:0.8;" x="348.612806" xlink:href="#m376170331f" y="307.584"/>
      </g>
     </g>
     <g id="text_7">
      <!-- 1900 -->
      <g transform="translate(335.887806 322.182437)scale(0.1 -0.1)">
       <defs>
        <path d="M 10.984375 1.515625 
L 10.984375 10.5 
Q 14.703125 8.734375 18.5 7.8125 
Q 22.3125 6.890625 25.984375 6.890625 
Q 35.75 6.890625 40.890625 13.453125 
Q 46.046875 20.015625 46.78125 33.40625 
Q 43.953125 29.203125 39.59375 26.953125 
Q 35.25 24.703125 29.984375 24.703125 
Q 19.046875 24.703125 12.671875 31.3125 
Q 6.296875 37.9375 6.296875 49.421875 
Q 6.296875 60.640625 12.9375 67.421875 
Q 19.578125 74.21875 30.609375 74.21875 
Q 43.265625 74.21875 49.921875 64.515625 
Q 56.59375 54.828125 56.59375 36.375 
Q 56.59375 19.140625 48.40625 8.859375 
Q 40.234375 -1.421875 26.421875 -1.421875 
Q 22.703125 -1.421875 18.890625 -0.6875 
Q 15.09375 0.046875 10.984375 1.515625 
z
M 30.609375 32.421875 
Q 37.25 32.421875 41.125 36.953125 
Q 45.015625 41.5 45.015625 49.421875 
Q 45.015625 57.28125 41.125 61.84375 
Q 37.25 66.40625 30.609375 66.40625 
Q 23.96875 66.40625 20.09375 61.84375 
Q 16.21875 57.28125 16.21875 49.421875 
Q 16.21875 41.5 20.09375 36.953125 
Q 23.96875 32.421875 30.609375 32.421875 
z
" id="DejaVuSans-57"/>
       </defs>
       <use xlink:href="#DejaVuSans-49"/>
       <use x="63.623047" xlink:href="#DejaVuSans-57"/>
       <use x="127.246094" xlink:href="#DejaVuSans-48"/>
       <use x="190.869141" xlink:href="#DejaVuSans-48"/>
      </g>
     </g>
    </g>
    <g id="xtick_8">
     <g id="line2d_8">
      <g>
       <use style="stroke:#000000;stroke-width:0.8;" x="395.66419" xlink:href="#m376170331f" y="307.584"/>
      </g>
     </g>
     <g id="text_8">
      <!-- 1950 -->
      <g transform="translate(382.93919 322.182437)scale(0.1 -0.1)">
       <use xlink:href="#DejaVuSans-49"/>
       <use x="63.623047" xlink:href="#DejaVuSans-57"/>
       <use x="127.246094" xlink:href="#DejaVuSans-53"/>
       <use x="190.869141" xlink:href="#DejaVuSans-48"/>
      </g>
     </g>
    </g>
    <g id="text_9">
     <!-- Days -->
     <g transform="translate(223.681875 335.860562)scale(0.1 -0.1)">
      <defs>
       <path d="M 19.671875 64.796875 
L 19.671875 8.109375 
L 31.59375 8.109375 
Q 46.6875 8.109375 53.6875 14.9375 
Q 60.6875 21.78125 60.6875 36.53125 
Q 60.6875 51.171875 53.6875 57.984375 
Q 46.6875 64.796875 31.59375 64.796875 
z
M 9.8125 72.90625 
L 30.078125 72.90625 
Q 51.265625 72.90625 61.171875 64.09375 
Q 71.09375 55.28125 71.09375 36.53125 
Q 71.09375 17.671875 61.125 8.828125 
Q 51.171875 0 30.078125 0 
L 9.8125 0 
z
" id="DejaVuSans-68"/>
       <path d="M 34.28125 27.484375 
Q 23.390625 27.484375 19.1875 25 
Q 14.984375 22.515625 14.984375 16.5 
Q 14.984375 11.71875 18.140625 8.90625 
Q 21.296875 6.109375 26.703125 6.109375 
Q 34.1875 6.109375 38.703125 11.40625 
Q 43.21875 16.703125 43.21875 25.484375 
L 43.21875 27.484375 
z
M 52.203125 31.203125 
L 52.203125 0 
L 43.21875 0 
L 43.21875 8.296875 
Q 40.140625 3.328125 35.546875 0.953125 
Q 30.953125 -1.421875 24.3125 -1.421875 
Q 15.921875 -1.421875 10.953125 3.296875 
Q 6 8.015625 6 15.921875 
Q 6 25.140625 12.171875 29.828125 
Q 18.359375 34.515625 30.609375 34.515625 
L 43.21875 34.515625 
L 43.21875 35.40625 
Q 43.21875 41.609375 39.140625 45 
Q 35.0625 48.390625 27.6875 48.390625 
Q 23 48.390625 18.546875 47.265625 
Q 14.109375 46.140625 10.015625 43.890625 
L 10.015625 52.203125 
Q 14.9375 54.109375 19.578125 55.046875 
Q 24.21875 56 28.609375 56 
Q 40.484375 56 46.34375 49.84375 
Q 52.203125 43.703125 52.203125 31.203125 
z
" id="DejaVuSans-97"/>
       <path d="M 32.171875 -5.078125 
Q 28.375 -14.84375 24.75 -17.8125 
Q 21.140625 -20.796875 15.09375 -20.796875 
L 7.90625 -20.796875 
L 7.90625 -13.28125 
L 13.1875 -13.28125 
Q 16.890625 -13.28125 18.9375 -11.515625 
Q 21 -9.765625 23.484375 -3.21875 
L 25.09375 0.875 
L 2.984375 54.6875 
L 12.5 54.6875 
L 29.59375 11.921875 
L 46.6875 54.6875 
L 56.203125 54.6875 
z
" id="DejaVuSans-121"/>
       <path d="M 44.28125 53.078125 
L 44.28125 44.578125 
Q 40.484375 46.53125 36.375 47.5 
Q 32.28125 48.484375 27.875 48.484375 
Q 21.1875 48.484375 17.84375 46.4375 
Q 14.5 44.390625 14.5 40.28125 
Q 14.5 37.15625 16.890625 35.375 
Q 19.28125 33.59375 26.515625 31.984375 
L 29.59375 31.296875 
Q 39.15625 29.25 43.1875 25.515625 
Q 47.21875 21.78125 47.21875 15.09375 
Q 47.21875 7.46875 41.1875 3.015625 
Q 35.15625 -1.421875 24.609375 -1.421875 
Q 20.21875 -1.421875 15.453125 -0.5625 
Q 10.6875 0.296875 5.421875 2 
L 5.421875 11.28125 
Q 10.40625 8.6875 15.234375 7.390625 
Q 20.0625 6.109375 24.8125 6.109375 
Q 31.15625 6.109375 34.5625 8.28125 
Q 37.984375 10.453125 37.984375 14.40625 
Q 37.984375 18.0625 35.515625 20.015625 
Q 33.0625 21.96875 24.703125 23.78125 
L 21.578125 24.515625 
Q 13.234375 26.265625 9.515625 29.90625 
Q 5.8125 33.546875 5.8125 39.890625 
Q 5.8125 47.609375 11.28125 51.796875 
Q 16.75 56 26.8125 56 
Q 31.78125 56 36.171875 55.265625 
Q 40.578125 54.546875 44.28125 53.078125 
z
" id="DejaVuSans-115"/>
      </defs>
      <use xlink:href="#DejaVuSans-68"/>
      <use x="77.001953" xlink:href="#DejaVuSans-97"/>
      <use x="138.28125" xlink:href="#DejaVuSans-121"/>
      <use x="197.460938" xlink:href="#DejaVuSans-115"/>
     </g>
    </g>
   </g>
   <g id="matplotlib.axis_2">
    <g id="ytick_1">
     <g id="line2d_9">
      <defs>
       <path d="M 0 0 
L -3.5 0 
" id="mea3e4843df" style="stroke:#000000;stroke-width:0.8;"/>
      </defs>
      <g>
       <use style="stroke:#000000;stroke-width:0.8;" x="57.6" xlink:href="#mea3e4843df" y="281.931812"/>
      </g>
     </g>
     <g id="text_10">
      <!-- 800 -->
      <g transform="translate(31.5125 285.731031)scale(0.1 -0.1)">
       <use xlink:href="#DejaVuSans-56"/>
       <use x="63.623047" xlink:href="#DejaVuSans-48"/>
       <use x="127.246094" xlink:href="#DejaVuSans-48"/>
      </g>
     </g>
    </g>
    <g id="ytick_2">
     <g id="line2d_10">
      <g>
       <use style="stroke:#000000;stroke-width:0.8;" x="57.6" xlink:href="#mea3e4843df" y="248.041341"/>
      </g>
     </g>
     <g id="text_11">
      <!-- 1000 -->
      <g transform="translate(25.15 251.84056)scale(0.1 -0.1)">
       <use xlink:href="#DejaVuSans-49"/>
       <use x="63.623047" xlink:href="#DejaVuSans-48"/>
       <use x="127.246094" xlink:href="#DejaVuSans-48"/>
       <use x="190.869141" xlink:href="#DejaVuSans-48"/>
      </g>
     </g>
    </g>
    <g id="ytick_3">
     <g id="line2d_11">
      <g>
       <use style="stroke:#000000;stroke-width:0.8;" x="57.6" xlink:href="#mea3e4843df" y="214.150871"/>
      </g>
     </g>
     <g id="text_12">
      <!-- 1200 -->
      <g transform="translate(25.15 217.950089)scale(0.1 -0.1)">
       <defs>
        <path d="M 19.1875 8.296875 
L 53.609375 8.296875 
L 53.609375 0 
L 7.328125 0 
L 7.328125 8.296875 
Q 12.9375 14.109375 22.625 23.890625 
Q 32.328125 33.6875 34.8125 36.53125 
Q 39.546875 41.84375 41.421875 45.53125 
Q 43.3125 49.21875 43.3125 52.78125 
Q 43.3125 58.59375 39.234375 62.25 
Q 35.15625 65.921875 28.609375 65.921875 
Q 23.96875 65.921875 18.8125 64.3125 
Q 13.671875 62.703125 7.8125 59.421875 
L 7.8125 69.390625 
Q 13.765625 71.78125 18.9375 73 
Q 24.125 74.21875 28.421875 74.21875 
Q 39.75 74.21875 46.484375 68.546875 
Q 53.21875 62.890625 53.21875 53.421875 
Q 53.21875 48.921875 51.53125 44.890625 
Q 49.859375 40.875 45.40625 35.40625 
Q 44.1875 33.984375 37.640625 27.21875 
Q 31.109375 20.453125 19.1875 8.296875 
z
" id="DejaVuSans-50"/>
       </defs>
       <use xlink:href="#DejaVuSans-49"/>
       <use x="63.623047" xlink:href="#DejaVuSans-50"/>
       <use x="127.246094" xlink:href="#DejaVuSans-48"/>
       <use x="190.869141" xlink:href="#DejaVuSans-48"/>
      </g>
     </g>
    </g>
    <g id="ytick_4">
     <g id="line2d_12">
      <g>
       <use style="stroke:#000000;stroke-width:0.8;" x="57.6" xlink:href="#mea3e4843df" y="180.2604"/>
      </g>
     </g>
     <g id="text_13">
      <!-- 1400 -->
      <g transform="translate(25.15 184.059619)scale(0.1 -0.1)">
       <defs>
        <path d="M 37.796875 64.3125 
L 12.890625 25.390625 
L 37.796875 25.390625 
z
M 35.203125 72.90625 
L 47.609375 72.90625 
L 47.609375 25.390625 
L 58.015625 25.390625 
L 58.015625 17.1875 
L 47.609375 17.1875 
L 47.609375 0 
L 37.796875 0 
L 37.796875 17.1875 
L 4.890625 17.1875 
L 4.890625 26.703125 
z
" id="DejaVuSans-52"/>
       </defs>
       <use xlink:href="#DejaVuSans-49"/>
       <use x="63.623047" xlink:href="#DejaVuSans-52"/>
       <use x="127.246094" xlink:href="#DejaVuSans-48"/>
       <use x="190.869141" xlink:href="#DejaVuSans-48"/>
      </g>
     </g>
    </g>
    <g id="ytick_5">
     <g id="line2d_13">
      <g>
       <use style="stroke:#000000;stroke-width:0.8;" x="57.6" xlink:href="#mea3e4843df" y="146.36993"/>
      </g>
     </g>
     <g id="text_14">
      <!-- 1600 -->
      <g transform="translate(25.15 150.169148)scale(0.1 -0.1)">
       <use xlink:href="#DejaVuSans-49"/>
       <use x="63.623047" xlink:href="#DejaVuSans-54"/>
       <use x="127.246094" xlink:href="#DejaVuSans-48"/>
       <use x="190.869141" xlink:href="#DejaVuSans-48"/>
      </g>
     </g>
    </g>
    <g id="ytick_6">
     <g id="line2d_14">
      <g>
       <use style="stroke:#000000;stroke-width:0.8;" x="57.6" xlink:href="#mea3e4843df" y="112.479459"/>
      </g>
     </g>
     <g id="text_15">
      <!-- 1800 -->
      <g transform="translate(25.15 116.278678)scale(0.1 -0.1)">
       <use xlink:href="#DejaVuSans-49"/>
       <use x="63.623047" xlink:href="#DejaVuSans-56"/>
       <use x="127.246094" xlink:href="#DejaVuSans-48"/>
       <use x="190.869141" xlink:href="#DejaVuSans-48"/>
      </g>
     </g>
    </g>
    <g id="ytick_7">
     <g id="line2d_15">
      <g>
       <use style="stroke:#000000;stroke-width:0.8;" x="57.6" xlink:href="#mea3e4843df" y="78.588989"/>
      </g>
     </g>
     <g id="text_16">
      <!-- 2000 -->
      <g transform="translate(25.15 82.388207)scale(0.1 -0.1)">
       <use xlink:href="#DejaVuSans-50"/>
       <use x="63.623047" xlink:href="#DejaVuSans-48"/>
       <use x="127.246094" xlink:href="#DejaVuSans-48"/>
       <use x="190.869141" xlink:href="#DejaVuSans-48"/>
      </g>
     </g>
    </g>
    <g id="ytick_8">
     <g id="line2d_16">
      <g>
       <use style="stroke:#000000;stroke-width:0.8;" x="57.6" xlink:href="#mea3e4843df" y="44.698518"/>
      </g>
     </g>
     <g id="text_17">
      <!-- 2200 -->
      <g transform="translate(25.15 48.497737)scale(0.1 -0.1)">
       <use xlink:href="#DejaVuSans-50"/>
       <use x="63.623047" xlink:href="#DejaVuSans-50"/>
       <use x="127.246094" xlink:href="#DejaVuSans-48"/>
       <use x="190.869141" xlink:href="#DejaVuSans-48"/>
      </g>
     </g>
    </g>
    <g id="text_18">
     <!-- Price -->
     <g transform="translate(19.070312 186.725656)rotate(-90)scale(0.1 -0.1)">
      <defs>
       <path d="M 19.671875 64.796875 
L 19.671875 37.40625 
L 32.078125 37.40625 
Q 38.96875 37.40625 42.71875 40.96875 
Q 46.484375 44.53125 46.484375 51.125 
Q 46.484375 57.671875 42.71875 61.234375 
Q 38.96875 64.796875 32.078125 64.796875 
z
M 9.8125 72.90625 
L 32.078125 72.90625 
Q 44.34375 72.90625 50.609375 67.359375 
Q 56.890625 61.8125 56.890625 51.125 
Q 56.890625 40.328125 50.609375 34.8125 
Q 44.34375 29.296875 32.078125 29.296875 
L 19.671875 29.296875 
L 19.671875 0 
L 9.8125 0 
z
" id="DejaVuSans-80"/>
       <path d="M 41.109375 46.296875 
Q 39.59375 47.171875 37.8125 47.578125 
Q 36.03125 48 33.890625 48 
Q 26.265625 48 22.1875 43.046875 
Q 18.109375 38.09375 18.109375 28.8125 
L 18.109375 0 
L 9.078125 0 
L 9.078125 54.6875 
L 18.109375 54.6875 
L 18.109375 46.1875 
Q 20.953125 51.171875 25.484375 53.578125 
Q 30.03125 56 36.53125 56 
Q 37.453125 56 38.578125 55.875 
Q 39.703125 55.765625 41.0625 55.515625 
z
" id="DejaVuSans-114"/>
       <path d="M 9.421875 54.6875 
L 18.40625 54.6875 
L 18.40625 0 
L 9.421875 0 
z
M 9.421875 75.984375 
L 18.40625 75.984375 
L 18.40625 64.59375 
L 9.421875 64.59375 
z
" id="DejaVuSans-105"/>
       <path d="M 48.78125 52.59375 
L 48.78125 44.1875 
Q 44.96875 46.296875 41.140625 47.34375 
Q 37.3125 48.390625 33.40625 48.390625 
Q 24.65625 48.390625 19.8125 42.84375 
Q 14.984375 37.3125 14.984375 27.296875 
Q 14.984375 17.28125 19.8125 11.734375 
Q 24.65625 6.203125 33.40625 6.203125 
Q 37.3125 6.203125 41.140625 7.25 
Q 44.96875 8.296875 48.78125 10.40625 
L 48.78125 2.09375 
Q 45.015625 0.34375 40.984375 -0.53125 
Q 36.96875 -1.421875 32.421875 -1.421875 
Q 20.0625 -1.421875 12.78125 6.34375 
Q 5.515625 14.109375 5.515625 27.296875 
Q 5.515625 40.671875 12.859375 48.328125 
Q 20.21875 56 33.015625 56 
Q 37.15625 56 41.109375 55.140625 
Q 45.0625 54.296875 48.78125 52.59375 
z
" id="DejaVuSans-99"/>
       <path d="M 56.203125 29.59375 
L 56.203125 25.203125 
L 14.890625 25.203125 
Q 15.484375 15.921875 20.484375 11.0625 
Q 25.484375 6.203125 34.421875 6.203125 
Q 39.59375 6.203125 44.453125 7.46875 
Q 49.3125 8.734375 54.109375 11.28125 
L 54.109375 2.78125 
Q 49.265625 0.734375 44.1875 -0.34375 
Q 39.109375 -1.421875 33.890625 -1.421875 
Q 20.796875 -1.421875 13.15625 6.1875 
Q 5.515625 13.8125 5.515625 26.8125 
Q 5.515625 40.234375 12.765625 48.109375 
Q 20.015625 56 32.328125 56 
Q 43.359375 56 49.78125 48.890625 
Q 56.203125 41.796875 56.203125 29.59375 
z
M 47.21875 32.234375 
Q 47.125 39.59375 43.09375 43.984375 
Q 39.0625 48.390625 32.421875 48.390625 
Q 24.90625 48.390625 20.390625 44.140625 
Q 15.875 39.890625 15.1875 32.171875 
z
" id="DejaVuSans-101"/>
      </defs>
      <use xlink:href="#DejaVuSans-80"/>
      <use x="58.552734" xlink:href="#DejaVuSans-114"/>
      <use x="99.666016" xlink:href="#DejaVuSans-105"/>
      <use x="127.449219" xlink:href="#DejaVuSans-99"/>
      <use x="182.429688" xlink:href="#DejaVuSans-101"/>
     </g>
    </g>
   </g>
   <g id="line2d_17">
    <path clip-path="url(#pa831aaf4bd)" d="M 73.832727 294.640738 
L 74.773755 294.640738 
L 75.714783 295.149095 
L 81.360949 295.149095 
L 82.301976 295.488 
L 83.243004 295.488 
L 84.184032 294.979643 
L 87.948142 294.979643 
L 88.88917 294.556012 
L 90.771225 294.556012 
L 92.653281 293.962929 
L 93.594308 294.38656 
L 98.299447 294.38656 
L 99.240474 293.454572 
L 100.181502 292.776762 
L 103.004585 292.692036 
L 103.945613 292.437858 
L 104.88664 291.675322 
L 105.827668 291.760048 
L 106.768696 292.183679 
L 107.709723 292.776762 
L 109.591779 294.38656 
L 110.532806 294.38656 
L 111.473834 294.640738 
L 113.355889 294.640738 
L 114.296917 294.979643 
L 115.237945 294.556012 
L 116.178972 293.793476 
L 117.12 291.336417 
L 118.061028 289.218263 
L 119.002055 288.879358 
L 119.943083 283.033252 
L 120.884111 275.662075 
L 121.825138 275.153718 
L 122.766166 275.153718 
L 123.707194 274.391182 
L 124.648221 273.459194 
L 125.589249 270.493778 
L 126.530277 269.646516 
L 127.471304 268.375624 
L 128.412332 264.562946 
L 129.35336 269.985421 
L 130.294387 271.34104 
L 131.235415 271.595218 
L 132.176443 271.595218 
L 133.11747 270.747957 
L 134.058498 269.646516 
L 134.999526 268.290897 
L 136.881581 267.358909 
L 137.822609 263.885136 
L 138.763636 263.715684 
L 139.704664 263.715684 
L 140.645692 256.344507 
L 141.586719 251.515114 
L 142.527747 250.583127 
L 143.468775 249.312234 
L 144.409802 248.464972 
L 145.35083 247.363532 
L 146.291858 245.838461 
L 147.232885 245.41483 
L 149.114941 240.415985 
L 150.055968 241.602152 
L 150.996996 258.632113 
L 152.879051 258.632113 
L 153.820079 259.564101 
L 154.761107 259.564101 
L 155.702134 260.91972 
L 156.643162 261.258625 
L 157.58419 261.258625 
L 158.525217 274.645361 
L 159.466245 273.459194 
L 160.407273 273.713373 
L 161.3483 273.713373 
L 162.289328 273.459194 
L 163.230356 272.188302 
L 164.171383 272.188302 
L 165.112411 270.154873 
L 166.994466 270.154873 
L 167.935494 264.224041 
L 168.876522 252.108198 
L 169.817549 249.820591 
L 171.699605 249.735865 
L 174.522688 249.651139 
L 175.463715 251.515114 
L 176.404743 251.769293 
L 177.345771 259.564101 
L 179.227826 259.564101 
L 180.168854 262.105887 
L 181.109881 263.969862 
L 182.050909 267.020005 
L 182.991937 273.798099 
L 183.932964 276.594063 
L 184.873992 277.610777 
L 185.81502 281.592907 
L 187.697075 281.592907 
L 188.638103 285.405585 
L 189.57913 286.337573 
L 190.520158 285.320859 
L 191.461186 285.236133 
L 192.402213 284.981954 
L 193.343241 282.101264 
L 195.225296 282.101264 
L 197.107352 276.000979 
L 199.930435 276.000979 
L 200.871462 271.34104 
L 201.81249 266.003291 
L 202.753518 266.003291 
L 203.694545 263.461505 
L 204.635573 264.139315 
L 209.340711 264.139315 
L 210.281739 271.679944 
L 211.222767 271.849397 
L 212.163794 272.696659 
L 213.104822 273.035563 
L 214.04585 273.035563 
L 214.986877 273.628647 
L 215.927905 273.882825 
L 216.868933 274.645361 
L 217.80996 274.814813 
L 218.750988 276.42461 
L 223.456126 276.42461 
L 224.397154 277.356598 
L 225.338182 277.10242 
L 226.279209 274.306456 
L 227.220237 270.154873 
L 229.102292 269.646516 
L 230.04332 269.646516 
L 230.984348 269.477064 
L 231.925375 268.290897 
L 232.866403 266.765826 
L 233.807431 266.172743 
L 234.748458 265.749112 
L 235.689486 267.020005 
L 236.630514 267.020005 
L 237.571542 267.443636 
L 241.335652 267.528362 
L 242.27668 267.020005 
L 243.217708 266.850552 
L 244.158735 267.613088 
L 246.981818 267.613088 
L 247.922846 268.375624 
L 248.863874 269.646516 
L 249.804901 270.66323 
L 250.745929 271.34104 
L 251.686957 271.595218 
L 252.627984 271.595218 
L 254.51004 272.188302 
L 256.392095 272.188302 
L 257.333123 271.679944 
L 259.215178 271.679944 
L 261.097233 272.781385 
L 262.979289 272.866111 
L 263.920316 272.611932 
L 264.861344 270.239599 
L 265.802372 268.375624 
L 266.743399 266.850552 
L 267.684427 263.376779 
L 268.625455 261.851708 
L 271.448538 260.411363 
L 272.389565 255.497245 
L 273.330593 253.294364 
L 274.271621 248.888603 
L 275.212648 247.194079 
L 276.153676 244.906473 
L 277.094704 244.313389 
L 278.035731 238.97564 
L 278.976759 238.721462 
L 279.917787 236.77276 
L 280.858814 231.435011 
L 281.799842 225.080547 
L 283.681897 225.080547 
L 284.622925 223.894381 
L 285.563953 215.675942 
L 286.50498 201.10304 
L 287.446008 201.10304 
L 288.387036 199.408516 
L 289.328063 194.579124 
L 290.269091 194.579124 
L 291.210119 192.376243 
L 292.151146 190.935898 
L 293.092174 188.394113 
L 294.033202 183.649447 
L 295.915257 183.649447 
L 296.856285 177.888067 
L 297.797312 182.971638 
L 301.561423 182.971638 
L 302.502451 184.24253 
L 305.325534 184.24253 
L 306.266561 174.837925 
L 307.207589 174.837925 
L 308.148617 177.718615 
L 310.030672 177.718615 
L 310.9717 174.753199 
L 311.912727 174.244842 
L 312.853755 169.669628 
L 313.794783 169.669628 
L 314.73581 166.873664 
L 315.676838 157.89269 
L 316.617866 150.606238 
L 317.558893 148.064453 
L 318.499921 146.36993 
L 319.440949 133.406825 
L 321.323004 129.848325 
L 322.264032 128.153802 
L 323.205059 116.800494 
L 324.146087 114.343435 
L 325.087115 113.072542 
L 326.028142 108.497329 
L 326.96917 98.49964 
L 327.910198 94.771688 
L 328.851225 78.588989 
L 329.792253 58.847789 
L 332.615336 58.847789 
L 333.556364 56.983814 
L 334.497391 53.848945 
L 337.320474 53.848945 
L 338.261502 59.779777 
L 339.20253 64.016086 
L 340.143557 69.946919 
L 341.084585 69.946919 
L 342.025613 68.252395 
L 342.96664 69.777466 
L 344.848696 89.772844 
L 345.789723 91.63682 
L 346.730751 92.229903 
L 348.612806 92.229903 
L 349.553834 97.228747 
L 350.494862 98.49964 
L 351.435889 99.516354 
L 354.258972 99.516354 
L 355.2 95.788402 
L 356.141028 94.263331 
L 357.082055 99.770533 
L 358.964111 99.770533 
L 359.905138 100.617794 
L 363.669249 100.617794 
L 364.610277 119.511732 
L 367.43336 119.511732 
L 368.374387 114.597613 
L 369.315415 110.784936 
L 371.19747 110.784936 
L 372.138498 109.937674 
L 373.079526 109.429317 
L 374.020553 107.819519 
L 374.961581 109.937674 
L 376.843636 114.767066 
L 377.784664 116.546316 
L 378.725692 119.850636 
L 379.666719 121.121529 
L 380.607747 119.935363 
L 381.548775 119.427006 
L 384.371858 119.427006 
L 385.312885 118.833922 
L 386.253913 114.089256 
L 387.194941 114.089256 
L 388.135968 113.326721 
L 389.076996 112.90309 
L 390.018024 112.90309 
L 390.959051 108.666781 
L 392.841107 108.666781 
L 393.782134 106.548627 
L 394.723162 106.04027 
L 396.605217 106.04027 
L 397.546245 114.089256 
L 398.487273 114.089256 
L 398.487273 114.089256 
" style="fill:none;stroke:#0000ff;stroke-linecap:square;stroke-width:1.5;"/>
   </g>
   <g id="line2d_18">
    <path clip-path="url(#pa831aaf4bd)" d="M 73.832727 289.476496 
L 74.773755 289.431288 
L 76.65581 288.843211 
L 77.596838 288.733073 
L 79.478893 288.81842 
L 84.184032 289.395772 
L 86.066087 289.188663 
L 87.007115 289.216122 
L 90.771225 288.497077 
L 92.653281 288.172362 
L 94.535336 287.790815 
L 95.476364 287.746828 
L 99.240474 288.067209 
L 101.12253 287.843128 
L 103.004585 287.020047 
L 104.88664 286.225056 
L 106.768696 285.653186 
L 108.650751 285.44409 
L 109.591779 285.519363 
L 113.355889 286.466327 
L 115.237945 286.81514 
L 117.12 287.390931 
L 118.061028 287.602301 
L 119.002055 287.644727 
L 119.943083 287.190554 
L 121.825138 285.446562 
L 122.766166 283.664499 
L 124.648221 279.208132 
L 128.412332 271.629307 
L 132.176443 264.898396 
L 133.11747 263.75571 
L 134.058498 262.935556 
L 135.940553 261.791225 
L 138.763636 260.61357 
L 139.704664 260.149407 
L 142.527747 257.822209 
L 144.409802 254.002736 
L 146.291858 250.010149 
L 150.055968 241.401258 
L 150.996996 239.549445 
L 152.879051 236.558317 
L 153.820079 238.406986 
L 155.702134 243.16125 
L 157.58419 249.125592 
L 162.289328 264.369343 
L 163.230356 266.625623 
L 164.171383 267.999041 
L 165.112411 268.514979 
L 166.053439 268.402845 
L 166.994466 267.734013 
L 168.876522 265.990414 
L 169.817549 264.585265 
L 170.758577 262.210574 
L 174.522688 249.790184 
L 175.463715 247.594512 
L 176.404743 246.065325 
L 177.345771 245.119022 
L 178.286798 244.815138 
L 179.227826 245.606281 
L 180.168854 247.296936 
L 182.991937 253.90022 
L 184.873992 259.686878 
L 186.756047 266.74329 
L 188.638103 273.419127 
L 190.520158 278.885227 
L 191.461186 280.814692 
L 192.402213 281.897837 
L 193.343241 282.692155 
L 194.284269 283.123398 
L 195.225296 283.206872 
L 197.107352 281.802582 
L 198.048379 280.937624 
L 199.930435 278.637616 
L 201.81249 275.901226 
L 202.753518 274.458967 
L 203.694545 272.600731 
L 205.576601 269.609262 
L 207.458656 267.116242 
L 209.340711 264.848555 
L 210.281739 263.947481 
L 211.222767 263.254861 
L 212.163794 262.930395 
L 214.04585 263.820464 
L 214.986877 264.66119 
L 216.868933 266.640061 
L 218.750988 267.94015 
L 219.692016 268.408989 
L 220.633043 269.079786 
L 222.515099 270.651812 
L 225.338182 272.414193 
L 226.279209 272.593357 
L 227.220237 272.659115 
L 228.161265 272.557737 
L 230.04332 271.436595 
L 231.925375 269.918815 
L 233.807431 268.193926 
L 236.630514 266.129718 
L 237.571542 265.267273 
L 239.453597 263.857553 
L 241.335652 263.072201 
L 245.099763 262.20834 
L 248.863874 262.610913 
L 249.804901 262.828128 
L 253.569012 264.401271 
L 255.451067 265.057009 
L 258.27415 266.274617 
L 262.979289 267.150031 
L 264.861344 267.246227 
L 266.743399 266.739815 
L 267.684427 266.113511 
L 268.625455 265.23849 
L 269.566482 264.00451 
L 274.271621 255.252344 
L 278.976759 244.229698 
L 281.799842 236.936317 
L 282.74087 234.770959 
L 287.446008 220.764332 
L 288.387036 216.790703 
L 289.328063 211.697142 
L 291.210119 204.293055 
L 292.151146 200.406469 
L 293.092174 197.247585 
L 294.974229 191.802708 
L 295.915257 188.565758 
L 297.797312 181.460302 
L 298.73834 178.418247 
L 299.679368 177.079507 
L 300.620395 176.081968 
L 301.561423 174.8885 
L 302.502451 174.091007 
L 303.443478 173.583787 
L 304.384506 173.662742 
L 305.325534 174.061096 
L 306.266561 174.943729 
L 307.207589 175.482679 
L 308.148617 176.319723 
L 309.089644 176.392348 
L 310.9717 175.813972 
L 311.912727 175.326321 
L 313.794783 173.71882 
L 315.676838 171.503259 
L 316.617866 170.178709 
L 317.558893 167.926453 
L 320.381976 157.238709 
L 321.323004 152.93718 
L 323.205059 140.975483 
L 325.087115 129.610033 
L 326.028142 123.384707 
L 326.96917 118.025031 
L 329.792253 103.7097 
L 330.733281 98.262341 
L 331.674308 90.676142 
L 333.556364 73.348087 
L 334.497391 66.492962 
L 335.438419 62.919941 
L 336.379447 60.837903 
L 337.320474 57.534161 
L 338.261502 55.482323 
L 339.20253 54.35151 
L 340.143557 53.600145 
L 341.084585 53.568 
L 342.025613 54.31316 
L 343.907668 57.67271 
L 344.848696 59.495812 
L 346.730751 64.667377 
L 349.553834 74.784854 
L 350.494862 77.368568 
L 352.376917 81.388572 
L 354.258972 86.347205 
L 355.2 88.840752 
L 356.141028 90.608377 
L 357.082055 91.549984 
L 358.023083 90.98859 
L 358.964111 89.933009 
L 359.905138 91.327826 
L 360.846166 92.948338 
L 362.728221 97.147372 
L 364.610277 99.879129 
L 368.374387 104.957756 
L 369.315415 105.712597 
L 370.256443 106.168186 
L 371.19747 105.586811 
L 373.079526 104.008145 
L 374.020553 103.470808 
L 376.843636 102.172962 
L 377.784664 101.668536 
L 378.725692 101.818709 
L 379.666719 103.025809 
L 380.607747 103.698447 
L 382.489802 105.550839 
L 383.43083 106.021115 
L 384.371858 106.140386 
L 385.312885 105.922634 
L 386.253913 105.557686 
L 387.194941 105.3546 
L 388.135968 105.401741 
L 389.076996 104.895432 
L 391.900079 102.554685 
L 393.782134 100.616408 
L 394.723162 99.716648 
L 395.66419 99.198776 
L 396.605217 98.944514 
L 398.487273 98.869593 
L 398.487273 98.869593 
" style="fill:none;stroke:#ff0000;stroke-linecap:square;stroke-width:1.5;"/>
   </g>
   <g id="patch_3">
    <path d="M 57.6 307.584 
L 57.6 41.472 
" style="fill:none;stroke:#000000;stroke-linecap:square;stroke-linejoin:miter;stroke-width:0.8;"/>
   </g>
   <g id="patch_4">
    <path d="M 414.72 307.584 
L 414.72 41.472 
" style="fill:none;stroke:#000000;stroke-linecap:square;stroke-linejoin:miter;stroke-width:0.8;"/>
   </g>
   <g id="patch_5">
    <path d="M 57.6 307.584 
L 414.72 307.584 
" style="fill:none;stroke:#000000;stroke-linecap:square;stroke-linejoin:miter;stroke-width:0.8;"/>
   </g>
   <g id="patch_6">
    <path d="M 57.6 41.472 
L 414.72 41.472 
" style="fill:none;stroke:#000000;stroke-linecap:square;stroke-linejoin:miter;stroke-width:0.8;"/>
   </g>
   <g id="legend_1">
    <g id="patch_7">
     <path d="M 64.6 78.82825 
L 171.114062 78.82825 
Q 173.114062 78.82825 173.114062 76.82825 
L 173.114062 48.472 
Q 173.114062 46.472 171.114062 46.472 
L 64.6 46.472 
Q 62.6 46.472 62.6 48.472 
L 62.6 76.82825 
Q 62.6 78.82825 64.6 78.82825 
z
" style="fill:#ffffff;opacity:0.8;stroke:#cccccc;stroke-linejoin:miter;"/>
    </g>
    <g id="line2d_19">
     <path d="M 66.6 54.570437 
L 86.6 54.570437 
" style="fill:none;stroke:#0000ff;stroke-linecap:square;stroke-width:1.5;"/>
    </g>
    <g id="line2d_20"/>
    <g id="text_19">
     <!-- Actual Price -->
     <g transform="translate(94.6 58.070437)scale(0.1 -0.1)">
      <defs>
       <path d="M 34.1875 63.1875 
L 20.796875 26.90625 
L 47.609375 26.90625 
z
M 28.609375 72.90625 
L 39.796875 72.90625 
L 67.578125 0 
L 57.328125 0 
L 50.6875 18.703125 
L 17.828125 18.703125 
L 11.1875 0 
L 0.78125 0 
z
" id="DejaVuSans-65"/>
       <path d="M 18.3125 70.21875 
L 18.3125 54.6875 
L 36.8125 54.6875 
L 36.8125 47.703125 
L 18.3125 47.703125 
L 18.3125 18.015625 
Q 18.3125 11.328125 20.140625 9.421875 
Q 21.96875 7.515625 27.59375 7.515625 
L 36.8125 7.515625 
L 36.8125 0 
L 27.59375 0 
Q 17.1875 0 13.234375 3.875 
Q 9.28125 7.765625 9.28125 18.015625 
L 9.28125 47.703125 
L 2.6875 47.703125 
L 2.6875 54.6875 
L 9.28125 54.6875 
L 9.28125 70.21875 
z
" id="DejaVuSans-116"/>
       <path d="M 8.5 21.578125 
L 8.5 54.6875 
L 17.484375 54.6875 
L 17.484375 21.921875 
Q 17.484375 14.15625 20.5 10.265625 
Q 23.53125 6.390625 29.59375 6.390625 
Q 36.859375 6.390625 41.078125 11.03125 
Q 45.3125 15.671875 45.3125 23.6875 
L 45.3125 54.6875 
L 54.296875 54.6875 
L 54.296875 0 
L 45.3125 0 
L 45.3125 8.40625 
Q 42.046875 3.421875 37.71875 1 
Q 33.40625 -1.421875 27.6875 -1.421875 
Q 18.265625 -1.421875 13.375 4.4375 
Q 8.5 10.296875 8.5 21.578125 
z
M 31.109375 56 
z
" id="DejaVuSans-117"/>
       <path d="M 9.421875 75.984375 
L 18.40625 75.984375 
L 18.40625 0 
L 9.421875 0 
z
" id="DejaVuSans-108"/>
       <path id="DejaVuSans-32"/>
      </defs>
      <use xlink:href="#DejaVuSans-65"/>
      <use x="66.658203" xlink:href="#DejaVuSans-99"/>
      <use x="121.638672" xlink:href="#DejaVuSans-116"/>
      <use x="160.847656" xlink:href="#DejaVuSans-117"/>
      <use x="224.226562" xlink:href="#DejaVuSans-97"/>
      <use x="285.505859" xlink:href="#DejaVuSans-108"/>
      <use x="313.289062" xlink:href="#DejaVuSans-32"/>
      <use x="345.076172" xlink:href="#DejaVuSans-80"/>
      <use x="403.628906" xlink:href="#DejaVuSans-114"/>
      <use x="444.742188" xlink:href="#DejaVuSans-105"/>
      <use x="472.525391" xlink:href="#DejaVuSans-99"/>
      <use x="527.505859" xlink:href="#DejaVuSans-101"/>
     </g>
    </g>
    <g id="line2d_21">
     <path d="M 66.6 69.248562 
L 86.6 69.248562 
" style="fill:none;stroke:#ff0000;stroke-linecap:square;stroke-width:1.5;"/>
    </g>
    <g id="line2d_22"/>
    <g id="text_20">
     <!-- Predicted Price -->
     <g transform="translate(94.6 72.748562)scale(0.1 -0.1)">
      <defs>
       <path d="M 45.40625 46.390625 
L 45.40625 75.984375 
L 54.390625 75.984375 
L 54.390625 0 
L 45.40625 0 
L 45.40625 8.203125 
Q 42.578125 3.328125 38.25 0.953125 
Q 33.9375 -1.421875 27.875 -1.421875 
Q 17.96875 -1.421875 11.734375 6.484375 
Q 5.515625 14.40625 5.515625 27.296875 
Q 5.515625 40.1875 11.734375 48.09375 
Q 17.96875 56 27.875 56 
Q 33.9375 56 38.25 53.625 
Q 42.578125 51.265625 45.40625 46.390625 
z
M 14.796875 27.296875 
Q 14.796875 17.390625 18.875 11.75 
Q 22.953125 6.109375 30.078125 6.109375 
Q 37.203125 6.109375 41.296875 11.75 
Q 45.40625 17.390625 45.40625 27.296875 
Q 45.40625 37.203125 41.296875 42.84375 
Q 37.203125 48.484375 30.078125 48.484375 
Q 22.953125 48.484375 18.875 42.84375 
Q 14.796875 37.203125 14.796875 27.296875 
z
" id="DejaVuSans-100"/>
      </defs>
      <use xlink:href="#DejaVuSans-80"/>
      <use x="58.552734" xlink:href="#DejaVuSans-114"/>
      <use x="97.416016" xlink:href="#DejaVuSans-101"/>
      <use x="158.939453" xlink:href="#DejaVuSans-100"/>
      <use x="222.416016" xlink:href="#DejaVuSans-105"/>
      <use x="250.199219" xlink:href="#DejaVuSans-99"/>
      <use x="305.179688" xlink:href="#DejaVuSans-116"/>
      <use x="344.388672" xlink:href="#DejaVuSans-101"/>
      <use x="405.912109" xlink:href="#DejaVuSans-100"/>
      <use x="469.388672" xlink:href="#DejaVuSans-32"/>
      <use x="501.175781" xlink:href="#DejaVuSans-80"/>
      <use x="559.728516" xlink:href="#DejaVuSans-114"/>
      <use x="600.841797" xlink:href="#DejaVuSans-105"/>
      <use x="628.625" xlink:href="#DejaVuSans-99"/>
      <use x="683.605469" xlink:href="#DejaVuSans-101"/>
     </g>
    </g>
   </g>
  </g>
 </g>
 <defs>
  <clipPath id="pa831aaf4bd">
   <rect height="266.112" width="357.12" x="57.6" y="41.472"/>
  </clipPath>
 </defs>
</svg>
