<?xml version="1.0" encoding="utf-8" standalone="no"?>
<!DOCTYPE svg PUBLIC "-//W3C//DTD SVG 1.1//EN"
  "http://www.w3.org/Graphics/SVG/1.1/DTD/svg11.dtd">
<!-- Created with matplotlib (https://matplotlib.org/) -->
<svg height="345.6pt" version="1.1" viewBox="0 0 460.8 345.6" width="460.8pt" xmlns="http://www.w3.org/2000/svg" xmlns:xlink="http://www.w3.org/1999/xlink">
 <metadata>
  <rdf:RDF xmlns:cc="http://creativecommons.org/ns#" xmlns:dc="http://purl.org/dc/elements/1.1/" xmlns:rdf="http://www.w3.org/1999/02/22-rdf-syntax-ns#">
   <cc:Work>
    <dc:type rdf:resource="http://purl.org/dc/dcmitype/StillImage"/>
    <dc:date>2021-02-01T22:45:49.768342</dc:date>
    <dc:format>image/svg+xml</dc:format>
    <dc:creator>
     <cc:Agent>
      <dc:title>Matplotlib v3.3.3, https://matplotlib.org/</dc:title>
     </cc:Agent>
    </dc:creator>
   </cc:Work>
  </rdf:RDF>
 </metadata>
 <defs>
  <style type="text/css">*{stroke-linecap:butt;stroke-linejoin:round;}</style>
 </defs>
 <g id="figure_1">
  <g id="patch_1">
   <path d="M 0 345.6 
L 460.8 345.6 
L 460.8 0 
L 0 0 
z
" style="fill:#ffffff;"/>
  </g>
  <g id="axes_1">
   <g id="patch_2">
    <path d="M 57.6 307.584 
L 414.72 307.584 
L 414.72 41.472 
L 57.6 41.472 
z
" style="fill:#ffffff;"/>
   </g>
   <g id="matplotlib.axis_1">
    <g id="xtick_1">
     <g id="line2d_1">
      <defs>
       <path d="M 0 0 
L 0 3.5 
" id="mc184dda81c" style="stroke:#000000;stroke-width:0.8;"/>
      </defs>
      <g>
       <use style="stroke:#000000;stroke-width:0.8;" x="58.1672" xlink:href="#mc184dda81c" y="307.584"/>
      </g>
     </g>
     <g id="text_1">
      <!-- 0 -->
      <g transform="translate(54.98595 322.182437)scale(0.1 -0.1)">
       <defs>
        <path d="M 31.78125 66.40625 
Q 24.171875 66.40625 20.328125 58.90625 
Q 16.5 51.421875 16.5 36.375 
Q 16.5 21.390625 20.328125 13.890625 
Q 24.171875 6.390625 31.78125 6.390625 
Q 39.453125 6.390625 43.28125 13.890625 
Q 47.125 21.390625 47.125 36.375 
Q 47.125 51.421875 43.28125 58.90625 
Q 39.453125 66.40625 31.78125 66.40625 
z
M 31.78125 74.21875 
Q 44.046875 74.21875 50.515625 64.515625 
Q 56.984375 54.828125 56.984375 36.375 
Q 56.984375 17.96875 50.515625 8.265625 
Q 44.046875 -1.421875 31.78125 -1.421875 
Q 19.53125 -1.421875 13.0625 8.265625 
Q 6.59375 17.96875 6.59375 36.375 
Q 6.59375 54.828125 13.0625 64.515625 
Q 19.53125 74.21875 31.78125 74.21875 
z
" id="DejaVuSans-48"/>
       </defs>
       <use xlink:href="#DejaVuSans-48"/>
      </g>
     </g>
    </g>
    <g id="xtick_2">
     <g id="line2d_2">
      <g>
       <use style="stroke:#000000;stroke-width:0.8;" x="103.183083" xlink:href="#mc184dda81c" y="307.584"/>
      </g>
     </g>
     <g id="text_2">
      <!-- 250 -->
      <g transform="translate(93.639333 322.182437)scale(0.1 -0.1)">
       <defs>
        <path d="M 19.1875 8.296875 
L 53.609375 8.296875 
L 53.609375 0 
L 7.328125 0 
L 7.328125 8.296875 
Q 12.9375 14.109375 22.625 23.890625 
Q 32.328125 33.6875 34.8125 36.53125 
Q 39.546875 41.84375 41.421875 45.53125 
Q 43.3125 49.21875 43.3125 52.78125 
Q 43.3125 58.59375 39.234375 62.25 
Q 35.15625 65.921875 28.609375 65.921875 
Q 23.96875 65.921875 18.8125 64.3125 
Q 13.671875 62.703125 7.8125 59.421875 
L 7.8125 69.390625 
Q 13.765625 71.78125 18.9375 73 
Q 24.125 74.21875 28.421875 74.21875 
Q 39.75 74.21875 46.484375 68.546875 
Q 53.21875 62.890625 53.21875 53.421875 
Q 53.21875 48.921875 51.53125 44.890625 
Q 49.859375 40.875 45.40625 35.40625 
Q 44.1875 33.984375 37.640625 27.21875 
Q 31.109375 20.453125 19.1875 8.296875 
z
" id="DejaVuSans-50"/>
        <path d="M 10.796875 72.90625 
L 49.515625 72.90625 
L 49.515625 64.59375 
L 19.828125 64.59375 
L 19.828125 46.734375 
Q 21.96875 47.46875 24.109375 47.828125 
Q 26.265625 48.1875 28.421875 48.1875 
Q 40.625 48.1875 47.75 41.5 
Q 54.890625 34.8125 54.890625 23.390625 
Q 54.890625 11.625 47.5625 5.09375 
Q 40.234375 -1.421875 26.90625 -1.421875 
Q 22.3125 -1.421875 17.546875 -0.640625 
Q 12.796875 0.140625 7.71875 1.703125 
L 7.71875 11.625 
Q 12.109375 9.234375 16.796875 8.0625 
Q 21.484375 6.890625 26.703125 6.890625 
Q 35.15625 6.890625 40.078125 11.328125 
Q 45.015625 15.765625 45.015625 23.390625 
Q 45.015625 31 40.078125 35.4375 
Q 35.15625 39.890625 26.703125 39.890625 
Q 22.75 39.890625 18.8125 39.015625 
Q 14.890625 38.140625 10.796875 36.28125 
z
" id="DejaVuSans-53"/>
       </defs>
       <use xlink:href="#DejaVuSans-50"/>
       <use x="63.623047" xlink:href="#DejaVuSans-53"/>
       <use x="127.246094" xlink:href="#DejaVuSans-48"/>
      </g>
     </g>
    </g>
    <g id="xtick_3">
     <g id="line2d_3">
      <g>
       <use style="stroke:#000000;stroke-width:0.8;" x="148.198965" xlink:href="#mc184dda81c" y="307.584"/>
      </g>
     </g>
     <g id="text_3">
      <!-- 500 -->
      <g transform="translate(138.655215 322.182437)scale(0.1 -0.1)">
       <use xlink:href="#DejaVuSans-53"/>
       <use x="63.623047" xlink:href="#DejaVuSans-48"/>
       <use x="127.246094" xlink:href="#DejaVuSans-48"/>
      </g>
     </g>
    </g>
    <g id="xtick_4">
     <g id="line2d_4">
      <g>
       <use style="stroke:#000000;stroke-width:0.8;" x="193.214848" xlink:href="#mc184dda81c" y="307.584"/>
      </g>
     </g>
     <g id="text_4">
      <!-- 750 -->
      <g transform="translate(183.671098 322.182437)scale(0.1 -0.1)">
       <defs>
        <path d="M 8.203125 72.90625 
L 55.078125 72.90625 
L 55.078125 68.703125 
L 28.609375 0 
L 18.3125 0 
L 43.21875 64.59375 
L 8.203125 64.59375 
z
" id="DejaVuSans-55"/>
       </defs>
       <use xlink:href="#DejaVuSans-55"/>
       <use x="63.623047" xlink:href="#DejaVuSans-53"/>
       <use x="127.246094" xlink:href="#DejaVuSans-48"/>
      </g>
     </g>
    </g>
    <g id="xtick_5">
     <g id="line2d_5">
      <g>
       <use style="stroke:#000000;stroke-width:0.8;" x="238.230731" xlink:href="#mc184dda81c" y="307.584"/>
      </g>
     </g>
     <g id="text_5">
      <!-- 1000 -->
      <g transform="translate(225.505731 322.182437)scale(0.1 -0.1)">
       <defs>
        <path d="M 12.40625 8.296875 
L 28.515625 8.296875 
L 28.515625 63.921875 
L 10.984375 60.40625 
L 10.984375 69.390625 
L 28.421875 72.90625 
L 38.28125 72.90625 
L 38.28125 8.296875 
L 54.390625 8.296875 
L 54.390625 0 
L 12.40625 0 
z
" id="DejaVuSans-49"/>
       </defs>
       <use xlink:href="#DejaVuSans-49"/>
       <use x="63.623047" xlink:href="#DejaVuSans-48"/>
       <use x="127.246094" xlink:href="#DejaVuSans-48"/>
       <use x="190.869141" xlink:href="#DejaVuSans-48"/>
      </g>
     </g>
    </g>
    <g id="xtick_6">
     <g id="line2d_6">
      <g>
       <use style="stroke:#000000;stroke-width:0.8;" x="283.246613" xlink:href="#mc184dda81c" y="307.584"/>
      </g>
     </g>
     <g id="text_6">
      <!-- 1250 -->
      <g transform="translate(270.521613 322.182437)scale(0.1 -0.1)">
       <use xlink:href="#DejaVuSans-49"/>
       <use x="63.623047" xlink:href="#DejaVuSans-50"/>
       <use x="127.246094" xlink:href="#DejaVuSans-53"/>
       <use x="190.869141" xlink:href="#DejaVuSans-48"/>
      </g>
     </g>
    </g>
    <g id="xtick_7">
     <g id="line2d_7">
      <g>
       <use style="stroke:#000000;stroke-width:0.8;" x="328.262496" xlink:href="#mc184dda81c" y="307.584"/>
      </g>
     </g>
     <g id="text_7">
      <!-- 1500 -->
      <g transform="translate(315.537496 322.182437)scale(0.1 -0.1)">
       <use xlink:href="#DejaVuSans-49"/>
       <use x="63.623047" xlink:href="#DejaVuSans-53"/>
       <use x="127.246094" xlink:href="#DejaVuSans-48"/>
       <use x="190.869141" xlink:href="#DejaVuSans-48"/>
      </g>
     </g>
    </g>
    <g id="xtick_8">
     <g id="line2d_8">
      <g>
       <use style="stroke:#000000;stroke-width:0.8;" x="373.278378" xlink:href="#mc184dda81c" y="307.584"/>
      </g>
     </g>
     <g id="text_8">
      <!-- 1750 -->
      <g transform="translate(360.553378 322.182437)scale(0.1 -0.1)">
       <use xlink:href="#DejaVuSans-49"/>
       <use x="63.623047" xlink:href="#DejaVuSans-55"/>
       <use x="127.246094" xlink:href="#DejaVuSans-53"/>
       <use x="190.869141" xlink:href="#DejaVuSans-48"/>
      </g>
     </g>
    </g>
    <g id="text_9">
     <!-- Days -->
     <g transform="translate(223.681875 335.860562)scale(0.1 -0.1)">
      <defs>
       <path d="M 19.671875 64.796875 
L 19.671875 8.109375 
L 31.59375 8.109375 
Q 46.6875 8.109375 53.6875 14.9375 
Q 60.6875 21.78125 60.6875 36.53125 
Q 60.6875 51.171875 53.6875 57.984375 
Q 46.6875 64.796875 31.59375 64.796875 
z
M 9.8125 72.90625 
L 30.078125 72.90625 
Q 51.265625 72.90625 61.171875 64.09375 
Q 71.09375 55.28125 71.09375 36.53125 
Q 71.09375 17.671875 61.125 8.828125 
Q 51.171875 0 30.078125 0 
L 9.8125 0 
z
" id="DejaVuSans-68"/>
       <path d="M 34.28125 27.484375 
Q 23.390625 27.484375 19.1875 25 
Q 14.984375 22.515625 14.984375 16.5 
Q 14.984375 11.71875 18.140625 8.90625 
Q 21.296875 6.109375 26.703125 6.109375 
Q 34.1875 6.109375 38.703125 11.40625 
Q 43.21875 16.703125 43.21875 25.484375 
L 43.21875 27.484375 
z
M 52.203125 31.203125 
L 52.203125 0 
L 43.21875 0 
L 43.21875 8.296875 
Q 40.140625 3.328125 35.546875 0.953125 
Q 30.953125 -1.421875 24.3125 -1.421875 
Q 15.921875 -1.421875 10.953125 3.296875 
Q 6 8.015625 6 15.921875 
Q 6 25.140625 12.171875 29.828125 
Q 18.359375 34.515625 30.609375 34.515625 
L 43.21875 34.515625 
L 43.21875 35.40625 
Q 43.21875 41.609375 39.140625 45 
Q 35.0625 48.390625 27.6875 48.390625 
Q 23 48.390625 18.546875 47.265625 
Q 14.109375 46.140625 10.015625 43.890625 
L 10.015625 52.203125 
Q 14.9375 54.109375 19.578125 55.046875 
Q 24.21875 56 28.609375 56 
Q 40.484375 56 46.34375 49.84375 
Q 52.203125 43.703125 52.203125 31.203125 
z
" id="DejaVuSans-97"/>
       <path d="M 32.171875 -5.078125 
Q 28.375 -14.84375 24.75 -17.8125 
Q 21.140625 -20.796875 15.09375 -20.796875 
L 7.90625 -20.796875 
L 7.90625 -13.28125 
L 13.1875 -13.28125 
Q 16.890625 -13.28125 18.9375 -11.515625 
Q 21 -9.765625 23.484375 -3.21875 
L 25.09375 0.875 
L 2.984375 54.6875 
L 12.5 54.6875 
L 29.59375 11.921875 
L 46.6875 54.6875 
L 56.203125 54.6875 
z
" id="DejaVuSans-121"/>
       <path d="M 44.28125 53.078125 
L 44.28125 44.578125 
Q 40.484375 46.53125 36.375 47.5 
Q 32.28125 48.484375 27.875 48.484375 
Q 21.1875 48.484375 17.84375 46.4375 
Q 14.5 44.390625 14.5 40.28125 
Q 14.5 37.15625 16.890625 35.375 
Q 19.28125 33.59375 26.515625 31.984375 
L 29.59375 31.296875 
Q 39.15625 29.25 43.1875 25.515625 
Q 47.21875 21.78125 47.21875 15.09375 
Q 47.21875 7.46875 41.1875 3.015625 
Q 35.15625 -1.421875 24.609375 -1.421875 
Q 20.21875 -1.421875 15.453125 -0.5625 
Q 10.6875 0.296875 5.421875 2 
L 5.421875 11.28125 
Q 10.40625 8.6875 15.234375 7.390625 
Q 20.0625 6.109375 24.8125 6.109375 
Q 31.15625 6.109375 34.5625 8.28125 
Q 37.984375 10.453125 37.984375 14.40625 
Q 37.984375 18.0625 35.515625 20.015625 
Q 33.0625 21.96875 24.703125 23.78125 
L 21.578125 24.515625 
Q 13.234375 26.265625 9.515625 29.90625 
Q 5.8125 33.546875 5.8125 39.890625 
Q 5.8125 47.609375 11.28125 51.796875 
Q 16.75 56 26.8125 56 
Q 31.78125 56 36.171875 55.265625 
Q 40.578125 54.546875 44.28125 53.078125 
z
" id="DejaVuSans-115"/>
      </defs>
      <use xlink:href="#DejaVuSans-68"/>
      <use x="77.001953" xlink:href="#DejaVuSans-97"/>
      <use x="138.28125" xlink:href="#DejaVuSans-121"/>
      <use x="197.460938" xlink:href="#DejaVuSans-115"/>
     </g>
    </g>
   </g>
   <g id="matplotlib.axis_2">
    <g id="ytick_1">
     <g id="line2d_9">
      <defs>
       <path d="M 0 0 
L -3.5 0 
" id="m79ef1258ff" style="stroke:#000000;stroke-width:0.8;"/>
      </defs>
      <g>
       <use style="stroke:#000000;stroke-width:0.8;" x="57.6" xlink:href="#m79ef1258ff" y="282.669657"/>
      </g>
     </g>
     <g id="text_10">
      <!-- 500 -->
      <g transform="translate(31.5125 286.468876)scale(0.1 -0.1)">
       <use xlink:href="#DejaVuSans-53"/>
       <use x="63.623047" xlink:href="#DejaVuSans-48"/>
       <use x="127.246094" xlink:href="#DejaVuSans-48"/>
      </g>
     </g>
    </g>
    <g id="ytick_2">
     <g id="line2d_10">
      <g>
       <use style="stroke:#000000;stroke-width:0.8;" x="57.6" xlink:href="#m79ef1258ff" y="245.234746"/>
      </g>
     </g>
     <g id="text_11">
      <!-- 1000 -->
      <g transform="translate(25.15 249.033965)scale(0.1 -0.1)">
       <use xlink:href="#DejaVuSans-49"/>
       <use x="63.623047" xlink:href="#DejaVuSans-48"/>
       <use x="127.246094" xlink:href="#DejaVuSans-48"/>
       <use x="190.869141" xlink:href="#DejaVuSans-48"/>
      </g>
     </g>
    </g>
    <g id="ytick_3">
     <g id="line2d_11">
      <g>
       <use style="stroke:#000000;stroke-width:0.8;" x="57.6" xlink:href="#m79ef1258ff" y="207.799835"/>
      </g>
     </g>
     <g id="text_12">
      <!-- 1500 -->
      <g transform="translate(25.15 211.599053)scale(0.1 -0.1)">
       <use xlink:href="#DejaVuSans-49"/>
       <use x="63.623047" xlink:href="#DejaVuSans-53"/>
       <use x="127.246094" xlink:href="#DejaVuSans-48"/>
       <use x="190.869141" xlink:href="#DejaVuSans-48"/>
      </g>
     </g>
    </g>
    <g id="ytick_4">
     <g id="line2d_12">
      <g>
       <use style="stroke:#000000;stroke-width:0.8;" x="57.6" xlink:href="#m79ef1258ff" y="170.364923"/>
      </g>
     </g>
     <g id="text_13">
      <!-- 2000 -->
      <g transform="translate(25.15 174.164142)scale(0.1 -0.1)">
       <use xlink:href="#DejaVuSans-50"/>
       <use x="63.623047" xlink:href="#DejaVuSans-48"/>
       <use x="127.246094" xlink:href="#DejaVuSans-48"/>
       <use x="190.869141" xlink:href="#DejaVuSans-48"/>
      </g>
     </g>
    </g>
    <g id="ytick_5">
     <g id="line2d_13">
      <g>
       <use style="stroke:#000000;stroke-width:0.8;" x="57.6" xlink:href="#m79ef1258ff" y="132.930012"/>
      </g>
     </g>
     <g id="text_14">
      <!-- 2500 -->
      <g transform="translate(25.15 136.729231)scale(0.1 -0.1)">
       <use xlink:href="#DejaVuSans-50"/>
       <use x="63.623047" xlink:href="#DejaVuSans-53"/>
       <use x="127.246094" xlink:href="#DejaVuSans-48"/>
       <use x="190.869141" xlink:href="#DejaVuSans-48"/>
      </g>
     </g>
    </g>
    <g id="ytick_6">
     <g id="line2d_14">
      <g>
       <use style="stroke:#000000;stroke-width:0.8;" x="57.6" xlink:href="#m79ef1258ff" y="95.495101"/>
      </g>
     </g>
     <g id="text_15">
      <!-- 3000 -->
      <g transform="translate(25.15 99.294319)scale(0.1 -0.1)">
       <defs>
        <path d="M 40.578125 39.3125 
Q 47.65625 37.796875 51.625 33 
Q 55.609375 28.21875 55.609375 21.1875 
Q 55.609375 10.40625 48.1875 4.484375 
Q 40.765625 -1.421875 27.09375 -1.421875 
Q 22.515625 -1.421875 17.65625 -0.515625 
Q 12.796875 0.390625 7.625 2.203125 
L 7.625 11.71875 
Q 11.71875 9.328125 16.59375 8.109375 
Q 21.484375 6.890625 26.8125 6.890625 
Q 36.078125 6.890625 40.9375 10.546875 
Q 45.796875 14.203125 45.796875 21.1875 
Q 45.796875 27.640625 41.28125 31.265625 
Q 36.765625 34.90625 28.71875 34.90625 
L 20.21875 34.90625 
L 20.21875 43.015625 
L 29.109375 43.015625 
Q 36.375 43.015625 40.234375 45.921875 
Q 44.09375 48.828125 44.09375 54.296875 
Q 44.09375 59.90625 40.109375 62.90625 
Q 36.140625 65.921875 28.71875 65.921875 
Q 24.65625 65.921875 20.015625 65.03125 
Q 15.375 64.15625 9.8125 62.3125 
L 9.8125 71.09375 
Q 15.4375 72.65625 20.34375 73.4375 
Q 25.25 74.21875 29.59375 74.21875 
Q 40.828125 74.21875 47.359375 69.109375 
Q 53.90625 64.015625 53.90625 55.328125 
Q 53.90625 49.265625 50.4375 45.09375 
Q 46.96875 40.921875 40.578125 39.3125 
z
" id="DejaVuSans-51"/>
       </defs>
       <use xlink:href="#DejaVuSans-51"/>
       <use x="63.623047" xlink:href="#DejaVuSans-48"/>
       <use x="127.246094" xlink:href="#DejaVuSans-48"/>
       <use x="190.869141" xlink:href="#DejaVuSans-48"/>
      </g>
     </g>
    </g>
    <g id="ytick_7">
     <g id="line2d_15">
      <g>
       <use style="stroke:#000000;stroke-width:0.8;" x="57.6" xlink:href="#m79ef1258ff" y="58.060189"/>
      </g>
     </g>
     <g id="text_16">
      <!-- 3500 -->
      <g transform="translate(25.15 61.859408)scale(0.1 -0.1)">
       <use xlink:href="#DejaVuSans-51"/>
       <use x="63.623047" xlink:href="#DejaVuSans-53"/>
       <use x="127.246094" xlink:href="#DejaVuSans-48"/>
       <use x="190.869141" xlink:href="#DejaVuSans-48"/>
      </g>
     </g>
    </g>
    <g id="text_17">
     <!-- Price -->
     <g transform="translate(19.070312 186.725656)rotate(-90)scale(0.1 -0.1)">
      <defs>
       <path d="M 19.671875 64.796875 
L 19.671875 37.40625 
L 32.078125 37.40625 
Q 38.96875 37.40625 42.71875 40.96875 
Q 46.484375 44.53125 46.484375 51.125 
Q 46.484375 57.671875 42.71875 61.234375 
Q 38.96875 64.796875 32.078125 64.796875 
z
M 9.8125 72.90625 
L 32.078125 72.90625 
Q 44.34375 72.90625 50.609375 67.359375 
Q 56.890625 61.8125 56.890625 51.125 
Q 56.890625 40.328125 50.609375 34.8125 
Q 44.34375 29.296875 32.078125 29.296875 
L 19.671875 29.296875 
L 19.671875 0 
L 9.8125 0 
z
" id="DejaVuSans-80"/>
       <path d="M 41.109375 46.296875 
Q 39.59375 47.171875 37.8125 47.578125 
Q 36.03125 48 33.890625 48 
Q 26.265625 48 22.1875 43.046875 
Q 18.109375 38.09375 18.109375 28.8125 
L 18.109375 0 
L 9.078125 0 
L 9.078125 54.6875 
L 18.109375 54.6875 
L 18.109375 46.1875 
Q 20.953125 51.171875 25.484375 53.578125 
Q 30.03125 56 36.53125 56 
Q 37.453125 56 38.578125 55.875 
Q 39.703125 55.765625 41.0625 55.515625 
z
" id="DejaVuSans-114"/>
       <path d="M 9.421875 54.6875 
L 18.40625 54.6875 
L 18.40625 0 
L 9.421875 0 
z
M 9.421875 75.984375 
L 18.40625 75.984375 
L 18.40625 64.59375 
L 9.421875 64.59375 
z
" id="DejaVuSans-105"/>
       <path d="M 48.78125 52.59375 
L 48.78125 44.1875 
Q 44.96875 46.296875 41.140625 47.34375 
Q 37.3125 48.390625 33.40625 48.390625 
Q 24.65625 48.390625 19.8125 42.84375 
Q 14.984375 37.3125 14.984375 27.296875 
Q 14.984375 17.28125 19.8125 11.734375 
Q 24.65625 6.203125 33.40625 6.203125 
Q 37.3125 6.203125 41.140625 7.25 
Q 44.96875 8.296875 48.78125 10.40625 
L 48.78125 2.09375 
Q 45.015625 0.34375 40.984375 -0.53125 
Q 36.96875 -1.421875 32.421875 -1.421875 
Q 20.0625 -1.421875 12.78125 6.34375 
Q 5.515625 14.109375 5.515625 27.296875 
Q 5.515625 40.671875 12.859375 48.328125 
Q 20.21875 56 33.015625 56 
Q 37.15625 56 41.109375 55.140625 
Q 45.0625 54.296875 48.78125 52.59375 
z
" id="DejaVuSans-99"/>
       <path d="M 56.203125 29.59375 
L 56.203125 25.203125 
L 14.890625 25.203125 
Q 15.484375 15.921875 20.484375 11.0625 
Q 25.484375 6.203125 34.421875 6.203125 
Q 39.59375 6.203125 44.453125 7.46875 
Q 49.3125 8.734375 54.109375 11.28125 
L 54.109375 2.78125 
Q 49.265625 0.734375 44.1875 -0.34375 
Q 39.109375 -1.421875 33.890625 -1.421875 
Q 20.796875 -1.421875 13.15625 6.1875 
Q 5.515625 13.8125 5.515625 26.8125 
Q 5.515625 40.234375 12.765625 48.109375 
Q 20.015625 56 32.328125 56 
Q 43.359375 56 49.78125 48.890625 
Q 56.203125 41.796875 56.203125 29.59375 
z
M 47.21875 32.234375 
Q 47.125 39.59375 43.09375 43.984375 
Q 39.0625 48.390625 32.421875 48.390625 
Q 24.90625 48.390625 20.390625 44.140625 
Q 15.875 39.890625 15.1875 32.171875 
z
" id="DejaVuSans-101"/>
      </defs>
      <use xlink:href="#DejaVuSans-80"/>
      <use x="58.552734" xlink:href="#DejaVuSans-114"/>
      <use x="99.666016" xlink:href="#DejaVuSans-105"/>
      <use x="127.449219" xlink:href="#DejaVuSans-99"/>
      <use x="182.429688" xlink:href="#DejaVuSans-101"/>
     </g>
    </g>
   </g>
   <g id="line2d_16">
    <path clip-path="url(#peaca02b7a7)" d="M 73.832727 281.39687 
L 74.012791 281.022521 
L 74.372918 281.022521 
L 74.552981 281.771219 
L 75.273236 282.669657 
L 75.453299 282.669657 
L 76.713744 284.167054 
L 77.974188 283.642965 
L 78.154252 280.797912 
L 78.334316 282.295308 
L 79.05457 280.423562 
L 80.315014 278.626687 
L 80.675141 279.749734 
L 80.855205 279.001036 
L 84.456476 269.941787 
L 84.636539 270.316136 
L 86.617238 278.327207 
L 87.337492 279.674864 
L 89.498254 280.348693 
L 90.218509 281.920959 
L 90.758699 277.42877 
L 91.118826 277.42877 
L 93.639716 276.979551 
L 97.42105 260.20871 
L 98.681494 261.182018 
L 99.041622 258.711314 
L 101.922638 250.176154 
L 103.003019 240.293338 
L 103.54321 242.614302 
L 104.443527 242.988651 
L 105.163782 242.988651 
L 105.343845 239.993858 
L 106.064099 237.373414 
L 107.14448 234.603231 
L 107.324544 235.501669 
L 108.044798 234.378622 
L 111.105878 196.045272 
L 112.006196 206.152698 
L 112.72645 197.917018 
L 114.887212 186.012716 
L 115.607466 178.750343 
L 115.78753 181.595397 
L 116.32772 182.344095 
L 116.687848 187.210633 
L 117.047975 186.461935 
L 118.84861 159.13445 
L 119.3888 145.732752 
L 120.469182 147.903976 
L 120.649245 154.267911 
L 121.189436 154.567391 
L 122.269817 164.749687 
L 123.530262 149.027024 
L 124.430579 144.160485 
L 124.790706 125.44303 
L 127.131532 99.013982 
L 128.752104 91.75161 
L 129.832485 84.264627 
L 130.012549 153.519213 
L 130.192612 166.621432 
L 133.793883 157.786793 
L 134.334074 122.672846 
L 134.514137 130.683917 
L 135.234391 125.5179 
L 135.774582 132.705402 
L 136.134709 125.44303 
L 137.395154 127.689124 
L 137.935344 129.036781 
L 139.555916 135.550456 
L 140.27617 156.364266 
L 141.176488 148.203456 
L 141.716678 162.877941 
L 141.896742 173.359716 
L 142.076805 159.13445 
L 142.256869 165.872734 
L 142.436932 166.621432 
L 142.616996 170.364923 
L 143.517314 174.108414 
L 143.697377 175.381201 
L 144.417631 149.775722 
L 145.678076 147.155278 
L 147.118584 137.272462 
L 148.739156 148.652675 
L 151.440109 164.450207 
L 154.501189 159.05958 
L 155.401507 148.652675 
L 155.761634 138.02116 
L 156.661951 134.801758 
L 158.282523 138.1709 
L 159.002777 136.673503 
L 159.182841 136.748373 
L 159.542968 138.919598 
L 160.803412 132.855142 
L 161.883794 137.047852 
L 162.784111 148.877284 
L 163.504365 149.401373 
L 164.044556 151.647468 
L 165.305001 151.722337 
L 167.82589 189.082379 
L 169.266398 178.974953 
L 169.626525 191.328474 
L 169.986653 191.702823 
L 170.166716 193.424829 
L 171.247097 180.846698 
L 174.308177 175.006852 
L 175.028431 178.675474 
L 176.649003 162.054373 
L 177.549321 161.380545 
L 177.909448 159.508799 
L 178.269575 156.888355 
L 180.07021 147.230148 
L 180.250274 149.027024 
L 181.150591 144.909184 
L 181.690782 147.903976 
L 182.411036 150.000331 
L 184.751862 162.129243 
L 185.472116 164.749687 
L 185.832243 162.877941 
L 186.012307 162.877941 
L 186.732561 160.631846 
L 187.092688 160.482107 
L 187.632879 166.546562 
L 189.433514 154.267911 
L 189.613577 151.647468 
L 194.115166 125.892249 
L 195.195547 126.940426 
L 195.735737 128.063473 
L 195.915801 126.566077 
L 196.816119 122.448237 
L 197.176246 122.073888 
L 197.536373 125.742509 
L 198.256627 119.453444 
L 199.156944 121.02571 
L 199.697135 122.822586 
L 201.49777 110.469065 
L 202.578152 116.90787 
L 203.298406 119.827793 
L 203.658533 119.977533 
L 206.179422 120.202142 
L 207.439867 112.71516 
L 207.61993 111.068024 
L 208.520248 94.521793 
L 208.700312 95.495101 
L 209.060439 88.382468 
L 209.600629 89.505515 
L 212.121519 73.782852 
L 212.301582 62.17803 
L 212.841773 62.552379 
L 214.822472 63.001598 
L 215.182599 71.162408 
L 215.362662 72.285456 
L 215.542726 76.777645 
L 215.722789 73.034154 
L 215.902853 73.034154 
L 217.883552 65.172823 
L 218.603806 88.008118 
L 218.783869 70.039361 
L 220.044314 86.510722 
L 223.825648 66.29587 
L 228.687363 67.868136 
L 228.867427 53.568 
L 229.767745 77.526343 
L 230.487999 155.390959 
L 231.748444 153.144864 
L 233.369015 159.883148 
L 234.269333 166.247083 
L 234.449396 164.749687 
L 234.62946 169.241876 
L 235.349714 170.364923 
L 235.709841 167.37013 
L 236.250032 168.867527 
L 238.590858 188.333681 
L 238.770921 188.70803 
L 238.950985 185.338888 
L 241.471874 193.200219 
L 242.012065 183.467142 
L 242.732319 183.467142 
L 244.352891 158.98471 
L 244.532954 147.903976 
L 244.893081 146.032231 
L 246.513653 135.176107 
L 246.693717 141.98926 
L 247.053844 140.791343 
L 247.413971 128.437823 
L 248.134225 134.502278 
L 249.034542 139.668296 
L 249.394669 137.047852 
L 249.93486 138.545249 
L 250.835178 140.042645 
L 251.195305 140.416994 
L 251.735495 141.165692 
L 252.45575 143.037438 
L 252.635813 142.28874 
L 252.815877 145.657882 
L 253.896258 148.053716 
L 255.156702 153.519213 
L 255.696893 153.519213 
L 255.876957 145.732752 
L 256.597211 148.278326 
L 256.957338 146.780929 
L 257.497528 133.67871 
L 258.037719 165.872734 
L 258.938037 167.59474 
L 259.838354 168.118829 
L 260.558608 170.364923 
L 261.458926 170.963882 
L 262.17918 172.236669 
L 264.159879 181.670266 
L 265.780451 185.638367 
L 266.860832 183.017923 
L 267.76115 183.467142 
L 268.121277 183.841491 
L 268.841531 188.034201 
L 270.282039 192.82587 
L 271.36242 195.071965 
L 272.262738 192.077172 
L 272.982992 194.772485 
L 273.523183 194.323266 
L 274.603564 199.264675 
L 276.224136 204.805042 
L 276.584263 201.061551 
L 276.94439 200.911811 
L 278.024771 210.345409 
L 278.204834 208.623403 
L 280.00547 209.147491 
L 280.54566 207.874704 
L 281.626041 213.340201 
L 281.806105 215.211947 
L 282.886486 228.314166 
L 284.867185 240.068728 
L 285.767503 241.116906 
L 285.947566 239.32003 
L 286.307693 231.458698 
L 286.847884 233.030965 
L 287.568138 218.581089 
L 288.648519 211.543326 
L 289.368773 212.366894 
L 290.089027 212.741243 
L 290.449154 215.661166 
L 292.069726 218.506219 
L 292.24979 216.409864 
L 294.590616 223.522497 
L 295.490933 227.340858 
L 295.85106 230.260781 
L 296.931442 263.053764 
L 297.291569 232.282267 
L 298.37195 259.984101 
L 299.812458 262.604545 
L 300.172585 262.454805 
L 300.352649 263.203503 
L 300.532712 262.829154 
L 302.693475 265.898817 
L 303.233665 266.048557 
L 305.934618 267.695693 
L 306.654872 266.946994 
L 308.09538 266.722385 
L 309.175762 269.792048 
L 311.336524 268.070042 
L 312.416905 269.567438 
L 316.73843 273.236059 
L 317.638748 265.823947 
L 317.818811 265.449598 
L 319.79951 267.246474 
L 319.979573 267.021864 
L 322.500463 269.941787 
L 325.201416 273.535539 
L 327.002051 270.540746 
L 327.362178 270.840225 
L 327.542242 270.016657 
L 328.082432 276.530332 
L 328.802686 277.05442 
L 329.162813 276.530332 
L 329.342877 277.42877 
L 330.423258 275.631894 
L 330.603322 277.05442 
L 330.783385 276.305722 
L 331.503639 275.257545 
L 332.584021 273.01145 
L 332.764084 268.369521 
L 333.664402 269.642308 
L 334.024529 269.792048 
L 336.725482 270.690486 
L 337.265672 272.487361 
L 337.625799 272.93658 
L 338.706181 273.16119 
L 340.146689 275.257545 
L 341.22707 275.332415 
L 341.587197 276.680071 
L 341.947324 277.27903 
L 346.809039 277.3539 
L 350.950501 283.418355 
L 351.490691 284.766012 
L 351.850818 284.915752 
L 352.751136 284.840882 
L 354.011581 286.188539 
L 355.452089 288.135154 
L 356.172343 288.434633 
L 356.53247 288.734113 
L 356.712534 287.835675 
L 356.892597 288.509503 
L 357.072661 288.359764 
L 357.612851 288.808983 
L 357.792915 288.808983 
L 358.693232 288.584373 
L 359.05336 287.985415 
L 360.133741 282.819397 
L 361.034058 284.915752 
L 361.214122 284.990622 
L 362.11444 284.316793 
L 363.014757 283.493225 
L 364.095138 277.12929 
L 365.17552 273.16119 
L 367.516345 272.187882 
L 368.77679 268.070042 
L 369.677108 261.182018 
L 370.037235 256.390349 
L 370.757489 266.422906 
L 371.657807 273.01145 
L 372.918251 280.648172 
L 373.638506 275.482154 
L 374.178696 270.690486 
L 375.079014 270.690486 
L 375.979331 268.519261 
L 376.159395 269.417699 
L 377.41984 270.465876 
L 378.140094 269.941787 
L 378.320157 268.219781 
L 379.760666 270.016657 
L 380.660983 266.348036 
L 384.802444 263.428113 
L 386.062889 263.203503 
L 387.14327 264.47629 
L 388.223651 261.930716 
L 389.304033 262.080456 
L 390.564477 255.417042 
L 390.924604 251.97303 
L 392.185049 247.85519 
L 392.365113 244.560917 
L 393.985684 246.582403 
L 394.886002 238.945681 
L 395.78632 233.929403 
L 395.966383 234.154012 
L 396.32651 235.277059 
L 397.046764 231.758178 
L 397.226828 232.506876 
L 397.586955 239.918988 
L 397.947082 239.993858 
L 398.307209 227.640338 
L 398.487273 230.485391 
L 398.487273 230.485391 
" style="fill:none;stroke:#0000ff;stroke-linecap:square;stroke-width:1.5;"/>
   </g>
   <g id="line2d_17">
    <path clip-path="url(#peaca02b7a7)" d="M 73.832727 283.751255 
L 74.012791 283.025812 
L 74.552981 279.083144 
L 75.453299 276.424996 
L 76.713744 282.362014 
L 77.974188 285.768671 
L 78.334316 283.490166 
L 79.05457 282.484009 
L 80.855205 274.678492 
L 84.456476 266.152997 
L 84.636539 266.25045 
L 87.337492 279.42593 
L 89.318191 285.305896 
L 89.498254 283.564709 
L 90.398572 280.848384 
L 90.758699 281.355167 
L 91.118826 281.046462 
L 93.639716 275.211788 
L 97.42105 262.027955 
L 99.041622 257.870705 
L 101.922638 251.257444 
L 103.003019 248.326339 
L 103.54321 243.177846 
L 104.443527 240.90479 
L 105.163782 240.414051 
L 106.064099 240.794806 
L 107.324544 231.330519 
L 108.044798 227.700593 
L 111.105878 205.635556 
L 112.006196 201.465959 
L 112.72645 202.527316 
L 114.887212 194.487748 
L 115.78753 185.974961 
L 116.687848 179.829988 
L 117.047975 178.262246 
L 118.84861 173.610647 
L 120.649245 157.573005 
L 121.189436 155.547498 
L 122.269817 156.197893 
L 123.530262 153.797416 
L 124.430579 143.270712 
L 124.790706 140.743087 
L 128.752104 107.853886 
L 129.832485 105.742158 
L 130.192612 102.48108 
L 133.793883 141.40105 
L 135.234391 135.915446 
L 135.774582 135.000758 
L 136.134709 135.596482 
L 137.395154 138.314662 
L 137.935344 141.860907 
L 139.555916 151.247163 
L 140.27617 148.249939 
L 141.176488 152.820654 
L 141.716678 149.308919 
L 141.896742 149.25496 
L 142.076805 149.524316 
L 142.256869 150.31352 
L 142.436932 151.886993 
L 142.616996 151.868842 
L 143.697377 155.117326 
L 144.417631 160.775134 
L 145.678076 156.527605 
L 147.118584 149.996877 
L 148.739156 148.628364 
L 151.440109 157.12119 
L 154.501189 156.711929 
L 155.401507 154.565928 
L 155.761634 153.073339 
L 156.661951 147.34291 
L 158.282523 141.138256 
L 158.64265 140.526447 
L 159.182841 141.173516 
L 159.542968 141.73599 
L 159.723031 140.795474 
L 160.803412 131.125551 
L 161.883794 122.946754 
L 162.784111 130.536444 
L 164.044556 146.131101 
L 167.82589 168.734201 
L 169.266398 179.080111 
L 169.986653 180.003069 
L 171.247097 186.139754 
L 174.308177 184.325403 
L 175.028431 180.695442 
L 176.649003 174.223278 
L 180.07021 148.422618 
L 180.250274 148.371785 
L 181.150591 149.302357 
L 181.690782 148.923932 
L 182.411036 149.753623 
L 184.751862 153.852581 
L 186.012307 162.678465 
L 186.732561 162.416329 
L 187.092688 160.577997 
L 187.632879 158.861877 
L 189.433514 166.716664 
L 189.613577 165.036645 
L 195.195547 133.283103 
L 195.915801 133.169336 
L 196.816119 131.005715 
L 197.176246 126.747841 
L 197.536373 124.027559 
L 198.256627 124.703069 
L 199.156944 119.055515 
L 199.697135 118.960813 
L 201.49777 118.315335 
L 202.578152 112.641277 
L 203.298406 113.5781 
L 203.658533 117.228973 
L 206.179422 118.09917 
L 207.439867 117.580437 
L 207.61993 118.475439 
L 208.700312 112.309609 
L 209.600629 104.410806 
L 212.121519 100.400354 
L 212.301582 99.02994 
L 212.841773 91.658644 
L 214.822472 77.139546 
L 215.182599 76.846574 
L 215.542726 77.499565 
L 215.902853 80.790547 
L 217.883552 73.184186 
L 218.603806 72.558157 
L 218.783869 74.70253 
L 220.044314 84.340045 
L 223.825648 80.952753 
L 228.687363 92.743543 
L 228.867427 92.138772 
L 229.767745 84.531662 
L 230.487999 90.147885 
L 231.748444 116.416135 
L 233.369015 132.154937 
L 234.62946 149.084364 
L 235.709841 157.636871 
L 236.250032 160.354631 
L 238.950985 182.416287 
L 241.471874 183.628315 
L 242.012065 184.033839 
L 242.732319 182.567489 
L 244.532954 174.022632 
L 244.893081 171.689238 
L 246.513653 159.099629 
L 246.693717 158.072728 
L 247.053844 155.305158 
L 247.413971 154.17107 
L 248.134225 148.781193 
L 249.034542 141.747761 
L 249.394669 140.306554 
L 249.93486 139.829167 
L 251.735495 146.643381 
L 252.45575 147.310209 
L 252.635813 147.285606 
L 252.815877 145.217236 
L 253.896258 152.676526 
L 255.156702 163.660784 
L 255.876957 167.487389 
L 256.957338 164.370585 
L 257.497528 162.88114 
L 258.037719 158.096691 
L 258.938037 161.663244 
L 260.558608 174.972835 
L 261.458926 175.24221 
L 262.17918 176.514421 
L 264.159879 188.185001 
L 265.780451 195.348075 
L 266.860832 197.383552 
L 267.76115 193.739424 
L 268.121277 191.626975 
L 268.841531 190.760872 
L 270.282039 198.907846 
L 271.36242 199.937708 
L 272.262738 196.768974 
L 272.982992 191.774649 
L 273.523183 191.287273 
L 274.603564 195.976471 
L 276.224136 207.274841 
L 276.94439 207.118603 
L 278.024771 203.034094 
L 278.204834 204.091192 
L 280.00547 208.013614 
L 280.54566 209.50539 
L 281.626041 210.334359 
L 281.806105 211.163063 
L 282.886486 218.106938 
L 285.947566 232.51342 
L 286.307693 233.598511 
L 286.847884 231.95546 
L 288.648519 224.413313 
L 289.368773 221.755471 
L 290.089027 219.991753 
L 290.449154 220.133084 
L 292.24979 219.471822 
L 294.590616 224.287838 
L 295.490933 225.833363 
L 295.85106 228.012393 
L 296.931442 233.68051 
L 297.291569 233.795629 
L 298.37195 230.904148 
L 299.812458 241.560851 
L 300.532712 249.654757 
L 303.233665 263.848666 
L 305.934618 274.974475 
L 306.654872 275.92541 
L 308.09538 272.319457 
L 309.175762 272.553037 
L 311.336524 271.375459 
L 312.416905 265.029986 
L 316.73843 275.828436 
L 317.818811 269.734949 
L 319.79951 266.866728 
L 319.979573 266.994373 
L 322.500463 272.938733 
L 325.201416 280.078971 
L 327.002051 279.383131 
L 327.542242 275.869618 
L 328.082432 273.182119 
L 329.342877 280.031259 
L 330.423258 283.153786 
L 330.603322 282.721512 
L 330.783385 282.8788 
L 331.503639 278.925618 
L 332.764084 273.493182 
L 333.664402 270.104989 
L 334.024529 270.145737 
L 336.725482 274.51847 
L 337.265672 274.79469 
L 337.625799 275.576198 
L 338.706181 278.199242 
L 340.146689 283.478221 
L 341.22707 286.463511 
L 341.587197 285.857161 
L 341.947324 286.411138 
L 346.809039 284.283891 
L 350.950501 287.945875 
L 351.490691 288.59479 
L 351.850818 289.389375 
L 352.571072 289.590306 
L 352.751136 289.194201 
L 353.831517 290.504745 
L 354.011581 291.052402 
L 355.452089 293.362993 
L 356.172343 293.745577 
L 356.53247 294.687852 
L 356.892597 295.075112 
L 357.072661 295.488 
L 357.792915 293.877986 
L 359.05336 291.417266 
L 360.133741 288.126015 
L 361.214122 285.75443 
L 362.11444 285.352939 
L 363.014757 284.574183 
L 364.095138 282.988624 
L 365.17552 277.25046 
L 367.516345 273.423134 
L 368.77679 272.557415 
L 369.677108 268.493291 
L 370.757489 261.5086 
L 371.657807 265.67131 
L 373.638506 278.79503 
L 374.178696 275.870943 
L 375.079014 268.770484 
L 376.159395 264.249364 
L 377.41984 266.35707 
L 378.320157 271.395621 
L 379.760666 270.50189 
L 380.660983 267.287432 
L 384.802444 263.216477 
L 386.062889 265.149945 
L 386.963207 265.418323 
L 388.223651 269.880841 
L 389.304033 263.099694 
L 390.924604 258.500898 
L 392.185049 253.364729 
L 392.365113 252.103426 
L 393.985684 250.231155 
L 394.886002 249.458493 
L 396.32651 240.02527 
L 397.046764 236.429636 
L 397.226828 236.793667 
L 397.586955 235.122778 
L 397.947082 234.997248 
L 398.487273 238.021497 
L 398.487273 238.021497 
" style="fill:none;stroke:#ff0000;stroke-linecap:square;stroke-width:1.5;"/>
   </g>
   <g id="patch_3">
    <path d="M 57.6 307.584 
L 57.6 41.472 
" style="fill:none;stroke:#000000;stroke-linecap:square;stroke-linejoin:miter;stroke-width:0.8;"/>
   </g>
   <g id="patch_4">
    <path d="M 414.72 307.584 
L 414.72 41.472 
" style="fill:none;stroke:#000000;stroke-linecap:square;stroke-linejoin:miter;stroke-width:0.8;"/>
   </g>
   <g id="patch_5">
    <path d="M 57.6 307.584 
L 414.72 307.584 
" style="fill:none;stroke:#000000;stroke-linecap:square;stroke-linejoin:miter;stroke-width:0.8;"/>
   </g>
   <g id="patch_6">
    <path d="M 57.6 41.472 
L 414.72 41.472 
" style="fill:none;stroke:#000000;stroke-linecap:square;stroke-linejoin:miter;stroke-width:0.8;"/>
   </g>
   <g id="legend_1">
    <g id="patch_7">
     <path d="M 301.205938 78.82825 
L 407.72 78.82825 
Q 409.72 78.82825 409.72 76.82825 
L 409.72 48.472 
Q 409.72 46.472 407.72 46.472 
L 301.205938 46.472 
Q 299.205938 46.472 299.205938 48.472 
L 299.205938 76.82825 
Q 299.205938 78.82825 301.205938 78.82825 
z
" style="fill:#ffffff;opacity:0.8;stroke:#cccccc;stroke-linejoin:miter;"/>
    </g>
    <g id="line2d_18">
     <path d="M 303.205938 54.570437 
L 323.205938 54.570437 
" style="fill:none;stroke:#0000ff;stroke-linecap:square;stroke-width:1.5;"/>
    </g>
    <g id="line2d_19"/>
    <g id="text_18">
     <!-- Actual Price -->
     <g transform="translate(331.205938 58.070437)scale(0.1 -0.1)">
      <defs>
       <path d="M 34.1875 63.1875 
L 20.796875 26.90625 
L 47.609375 26.90625 
z
M 28.609375 72.90625 
L 39.796875 72.90625 
L 67.578125 0 
L 57.328125 0 
L 50.6875 18.703125 
L 17.828125 18.703125 
L 11.1875 0 
L 0.78125 0 
z
" id="DejaVuSans-65"/>
       <path d="M 18.3125 70.21875 
L 18.3125 54.6875 
L 36.8125 54.6875 
L 36.8125 47.703125 
L 18.3125 47.703125 
L 18.3125 18.015625 
Q 18.3125 11.328125 20.140625 9.421875 
Q 21.96875 7.515625 27.59375 7.515625 
L 36.8125 7.515625 
L 36.8125 0 
L 27.59375 0 
Q 17.1875 0 13.234375 3.875 
Q 9.28125 7.765625 9.28125 18.015625 
L 9.28125 47.703125 
L 2.6875 47.703125 
L 2.6875 54.6875 
L 9.28125 54.6875 
L 9.28125 70.21875 
z
" id="DejaVuSans-116"/>
       <path d="M 8.5 21.578125 
L 8.5 54.6875 
L 17.484375 54.6875 
L 17.484375 21.921875 
Q 17.484375 14.15625 20.5 10.265625 
Q 23.53125 6.390625 29.59375 6.390625 
Q 36.859375 6.390625 41.078125 11.03125 
Q 45.3125 15.671875 45.3125 23.6875 
L 45.3125 54.6875 
L 54.296875 54.6875 
L 54.296875 0 
L 45.3125 0 
L 45.3125 8.40625 
Q 42.046875 3.421875 37.71875 1 
Q 33.40625 -1.421875 27.6875 -1.421875 
Q 18.265625 -1.421875 13.375 4.4375 
Q 8.5 10.296875 8.5 21.578125 
z
M 31.109375 56 
z
" id="DejaVuSans-117"/>
       <path d="M 9.421875 75.984375 
L 18.40625 75.984375 
L 18.40625 0 
L 9.421875 0 
z
" id="DejaVuSans-108"/>
       <path id="DejaVuSans-32"/>
      </defs>
      <use xlink:href="#DejaVuSans-65"/>
      <use x="66.658203" xlink:href="#DejaVuSans-99"/>
      <use x="121.638672" xlink:href="#DejaVuSans-116"/>
      <use x="160.847656" xlink:href="#DejaVuSans-117"/>
      <use x="224.226562" xlink:href="#DejaVuSans-97"/>
      <use x="285.505859" xlink:href="#DejaVuSans-108"/>
      <use x="313.289062" xlink:href="#DejaVuSans-32"/>
      <use x="345.076172" xlink:href="#DejaVuSans-80"/>
      <use x="403.628906" xlink:href="#DejaVuSans-114"/>
      <use x="444.742188" xlink:href="#DejaVuSans-105"/>
      <use x="472.525391" xlink:href="#DejaVuSans-99"/>
      <use x="527.505859" xlink:href="#DejaVuSans-101"/>
     </g>
    </g>
    <g id="line2d_20">
     <path d="M 303.205938 69.248562 
L 323.205938 69.248562 
" style="fill:none;stroke:#ff0000;stroke-linecap:square;stroke-width:1.5;"/>
    </g>
    <g id="line2d_21"/>
    <g id="text_19">
     <!-- Predicted Price -->
     <g transform="translate(331.205938 72.748562)scale(0.1 -0.1)">
      <defs>
       <path d="M 45.40625 46.390625 
L 45.40625 75.984375 
L 54.390625 75.984375 
L 54.390625 0 
L 45.40625 0 
L 45.40625 8.203125 
Q 42.578125 3.328125 38.25 0.953125 
Q 33.9375 -1.421875 27.875 -1.421875 
Q 17.96875 -1.421875 11.734375 6.484375 
Q 5.515625 14.40625 5.515625 27.296875 
Q 5.515625 40.1875 11.734375 48.09375 
Q 17.96875 56 27.875 56 
Q 33.9375 56 38.25 53.625 
Q 42.578125 51.265625 45.40625 46.390625 
z
M 14.796875 27.296875 
Q 14.796875 17.390625 18.875 11.75 
Q 22.953125 6.109375 30.078125 6.109375 
Q 37.203125 6.109375 41.296875 11.75 
Q 45.40625 17.390625 45.40625 27.296875 
Q 45.40625 37.203125 41.296875 42.84375 
Q 37.203125 48.484375 30.078125 48.484375 
Q 22.953125 48.484375 18.875 42.84375 
Q 14.796875 37.203125 14.796875 27.296875 
z
" id="DejaVuSans-100"/>
      </defs>
      <use xlink:href="#DejaVuSans-80"/>
      <use x="58.552734" xlink:href="#DejaVuSans-114"/>
      <use x="97.416016" xlink:href="#DejaVuSans-101"/>
      <use x="158.939453" xlink:href="#DejaVuSans-100"/>
      <use x="222.416016" xlink:href="#DejaVuSans-105"/>
      <use x="250.199219" xlink:href="#DejaVuSans-99"/>
      <use x="305.179688" xlink:href="#DejaVuSans-116"/>
      <use x="344.388672" xlink:href="#DejaVuSans-101"/>
      <use x="405.912109" xlink:href="#DejaVuSans-100"/>
      <use x="469.388672" xlink:href="#DejaVuSans-32"/>
      <use x="501.175781" xlink:href="#DejaVuSans-80"/>
      <use x="559.728516" xlink:href="#DejaVuSans-114"/>
      <use x="600.841797" xlink:href="#DejaVuSans-105"/>
      <use x="628.625" xlink:href="#DejaVuSans-99"/>
      <use x="683.605469" xlink:href="#DejaVuSans-101"/>
     </g>
    </g>
   </g>
  </g>
 </g>
 <defs>
  <clipPath id="peaca02b7a7">
   <rect height="266.112" width="357.12" x="57.6" y="41.472"/>
  </clipPath>
 </defs>
</svg>
